<svg xmlns="http://www.w3.org/2000/svg" aria-hidden="true" style="position:absolute;width:0;height:0;overflow:hidden">
  <defs>
    <symbol id="icon-fr" viewBox="0 0 32 32">
      <path fill="#f0f0f0" d="M14.531-.031h2.875c1.404.153 2.779.465 4.125.938v30.125a18.476 18.476 0 0 1-4.125.938h-2.875a16.176 16.176 0 0 1-4.188-1c.083-10 .083-20 0-30a16.166 16.166 0 0 1 4.188-1z" opacity=".999" style="fill:var(--color1, #f0f0f0)"/>
      <path fill="#0252b4" d="M10.219 1.031a892.397 892.397 0 0 1 0 29.876c-3.659-1.398-6.44-3.814-8.344-7.25a16.932 16.932 0 0 1-1.906-6.25v-2.875C.649 8.929 3.42 4.711 8.282 1.876a9.997 9.997 0 0 1 1.938-.844z" style="fill:var(--color2, #0252b4)"/>
      <path fill="#0c58b6" d="M10.219 1.031c.021-.052.063-.073.125-.063.083 10 .083 20 0 30-.062.011-.104-.01-.125-.063a892.397 892.397 0 0 0 0-29.876z" style="fill:var(--color3, #0c58b6)"/>
      <path fill="#d90d2f" d="M21.531.906a.448.448 0 0 1 .188.125 892.397 892.397 0 0 0 0 29.876.442.442 0 0 1-.188.125V.907z" style="fill:var(--color4, #d90d2f)"/>
      <path fill="#d80227" d="M21.719 1.031c3.659 1.398 6.44 3.814 8.344 7.25a15.481 15.481 0 0 1 1.469 3.938.787.787 0 0 0 .125.5c.13.606.234 1.21.313 1.813v2.875c-.68 5.603-3.451 9.822-8.313 12.656a9.997 9.997 0 0 1-1.938.844 892.397 892.397 0 0 1 0-29.876z" style="fill:var(--color5, #d80227)"/>
      <path fill="#e56374" d="M31.531 12.219c.079.15.121.317.125.5a.787.787 0 0 1-.125-.5z" opacity=".827" style="fill:var(--color6, #e56374)"/>
    </symbol>
    <symbol id="icon-en" viewBox="0 0 32 32">
      <path fill="#0352b4" d="M14.531-.031h1.438V15.97h-16v-1.438c.061-.174.082-.362.063-.563.289-.184.581-.372.875-.563.428.287.844.589 1.25.906.042.042.083.042.125 0a7 7 0 0 1-.469-1.594l1.281-.906a22.623 22.623 0 0 0-1.688-.031 27.994 27.994 0 0 0-.438-1.438c.119-.421.286-.817.5-1.188.243.158.483.325.719.5a4.713 4.713 0 0 0-.344-1.25c.108-.238.233-.467.375-.688.277-.162.548-.339.813-.531a1.136 1.136 0 0 1-.375-.094 13.344 13.344 0 0 1 3.063-3.438l-.375 1.188.063.125a24.19 24.19 0 0 1 1.219-.875c.431.284.859.575 1.281.875l.063-.063a8.633 8.633 0 0 1-.406-1.5c.412-.294.818-.597 1.219-.906-.479-.031-.958-.042-1.438-.031a16.144 16.144 0 0 1 7.188-2.5z" style="fill:var(--color7, #0352b4)"/>
      <path fill="#f0eeee" d="M15.969-.031h1.438c3.208.324 6.062 1.49 8.563 3.5h-10v-3.5z" opacity=".989" style="fill:var(--color8, #f0eeee)"/>
      <path fill="#ebecee" d="M12.344.906c.21.484.398.984.563 1.5.54.052 1.082.083 1.625.094-.457.311-.894.644-1.313 1 .209.5.365 1.011.469 1.531a11.608 11.608 0 0 0-1.313-.938l-1.313.938c.129-.512.285-1.023.469-1.531a15.918 15.918 0 0 0-1.313-1l1.625-.063c.198-.5.365-1.01.5-1.531z" style="fill:var(--color9, #ebecee)"/>
      <path fill="#eaecee" d="M7.344 2.469c.48-.01.959 0 1.438.031-.401.31-.807.612-1.219.906.089.507.224 1.007.406 1.5l-.063.063c-.423-.3-.85-.591-1.281-.875-.414.279-.821.57-1.219.875l-.063-.125.375-1.188a11.531 11.531 0 0 1 1.625-1.188z" opacity=".984" style="fill:var(--color10, #eaecee)"/>
      <path fill="#d80127" d="M15.969 3.469h10a14.044 14.044 0 0 1 3.625 4.063c-4.531.062-9.073.083-13.625.063V3.47z" style="fill:var(--color11, #d80127)"/>
      <path fill="#eaecee" d="m12.906 7.094 1.563.125a26.89 26.89 0 0 1-1.25.906 5.81 5.81 0 0 1 .438 1.531c-.422-.32-.849-.633-1.281-.938a15.3 15.3 0 0 0-1.313 1c.11-.529.266-1.05.469-1.563-.394-.343-.81-.655-1.25-.938l1.563-.125c.169-.496.346-.996.531-1.5.208.489.385.989.531 1.5z" style="fill:var(--color10, #eaecee)"/>
      <path fill="#e9ebee" d="m7.156 7.094 1.563.125c-.374.269-.749.54-1.125.813l-.063.156c.163.488.298.977.406 1.469-.42-.306-.847-.598-1.281-.875-.441.268-.868.559-1.281.875a8.633 8.633 0 0 1 .406-1.5 11.94 11.94 0 0 0-1.313-1.031 22.623 22.623 0 0 1 1.688-.031c.137-.505.293-1.005.469-1.5.208.488.385.988.531 1.5z" style="fill:var(--color12, #e9ebee)"/>
      <path fill="#709bd0" d="M7.156 7.094c.563-.01 1.125 0 1.688.031a.272.272 0 0 1-.125.094l-1.563-.125z" style="fill:var(--color13, #709bd0)"/>
      <path fill="#6e9acf" d="m11.844 7.094-1.563.125c-.034-.004-.055-.025-.063-.063.54-.062 1.082-.083 1.625-.063z" style="fill:var(--color14, #6e9acf)"/>
      <path fill="#709cd0" d="M12.906 7.094c.543-.021 1.085 0 1.625.063-.008.038-.029.059-.063.063l-1.563-.125z" style="fill:var(--color15, #709cd0)"/>
      <path fill="#e3e7ec" d="M2.656 7.094c.112.051.237.082.375.094-.265.193-.535.37-.813.531.116-.233.262-.441.438-.625z" opacity=".872" style="fill:var(--color16, #e3e7ec)"/>
      <path fill="#e58092" d="M29.594 7.531c.052.021.073.063.063.125H15.969v-.063c4.552.021 9.094 0 13.625-.063z" style="fill:var(--color17, #e58092)"/>
      <path fill="#f0f0f0" d="M15.969 7.656h13.688a15.278 15.278 0 0 1 1.813 4.125h-15.5V7.656z" opacity=".998" style="fill:var(--color1, #f0f0f0)"/>
      <path fill="#e1e6ec" d="M1.844 8.406c.173.404.288.821.344 1.25a14.243 14.243 0 0 0-.719-.5c.093-.27.218-.52.375-.75z" opacity=".931" style="fill:var(--color18, #e1e6ec)"/>
      <path fill="#e9ebee" d="M6.594 10.219a.14.14 0 0 1 .094.063c.163.478.319.957.469 1.438.54.052 1.082.083 1.625.094-.401.31-.807.612-1.219.906l.375 1.625c-.41-.335-.838-.648-1.281-.938a12.9 12.9 0 0 0-1.25.875.199.199 0 0 1-.031-.25l.406-1.219a15.447 15.447 0 0 0-1.313-1 22.623 22.623 0 0 1 1.688-.031c.133-.524.279-1.045.438-1.563z" style="fill:var(--color12, #e9ebee)"/>
      <path fill="#eaebee" d="M12.344 10.219c.21.484.398.984.563 1.5.54.052 1.082.083 1.625.094-.451.319-.888.652-1.313 1 .209.5.365 1.011.469 1.531a42.02 42.02 0 0 1-1.281-.938c-.457.3-.904.613-1.344.938.129-.512.285-1.022.469-1.531a15.29 15.29 0 0 0-1.313-1 22.623 22.623 0 0 1 1.688-.031c.133-.524.279-1.045.438-1.563z" style="fill:var(--color19, #eaebee)"/>
      <path fill="#ebedee" d="M.969 10.344c.159.475.304.955.438 1.438.563-.01 1.125 0 1.688.031l-1.281.906a7 7 0 0 0 .469 1.594c-.042.042-.083.042-.125 0a21.362 21.362 0 0 0-1.25-.906c-.294.191-.586.378-.875.563.177-1.248.489-2.457.938-3.625z" opacity=".977" style="fill:var(--color20, #ebedee)"/>
      <path fill="#dd304f" d="M15.969 11.844v-.063h15.5v.125a976.23 976.23 0 0 0-15.5-.063z" style="fill:var(--color21, #dd304f)"/>
      <path fill="#d80027" d="M15.969 11.844c5.171-.021 10.338 0 15.5.063.235.869.402 1.744.5 2.625v1.438h-16v-4.125z" style="fill:var(--color22, #d80027)"/>
      <path fill="#f0f0f0" d="M-.031 15.969h32v1.438a20.443 20.443 0 0 1-.5 2.688c-10.323-.021-20.636 0-30.938.063v.063a15.422 15.422 0 0 1-.563-2.813V15.97z" opacity=".998" style="fill:var(--color1, #f0f0f0)"/>
      <path fill="#ebbfc7" d="M.531 20.156a3841.98 3841.98 0 0 1 30.938-.063c.011.062-.01.104-.063.125a3826.439 3826.439 0 0 0-30.875-.063z" style="fill:var(--color23, #ebbfc7)"/>
      <path fill="#d80628" d="M.531 20.156c10.302-.021 20.594 0 30.875.063a15.058 15.058 0 0 1-1.75 4.125H2.281a15.058 15.058 0 0 1-1.75-4.125v-.063z" style="fill:var(--color24, #d80628)"/>
      <path fill="#f0f0f0" d="M2.281 24.344h27.375a14.99 14.99 0 0 1-3.75 4.188 793.235 793.235 0 0 0-19.875 0 14.963 14.963 0 0 1-3.75-4.188z" opacity=".997" style="fill:var(--color1, #f0f0f0)"/>
      <path fill="#e04f69" d="M25.906 28.531c-.03.088-.092.13-.188.125a.14.14 0 0 1 .063-.094c-6.542-.042-13.083-.042-19.625 0a.14.14 0 0 1 .063.094c-.095.005-.158-.037-.188-.125 6.625-.083 13.25-.083 19.875 0z" style="fill:var(--color25, #e04f69)"/>
      <path fill="#d80729" d="M25.719 28.656a14.984 14.984 0 0 1-6.25 2.969 29.28 29.28 0 0 1-2.063.344h-2.875A16.347 16.347 0 0 1 6.593 29a2.086 2.086 0 0 1-.375-.344.14.14 0 0 0-.063-.094c6.542-.042 13.083-.042 19.625 0a.14.14 0 0 0-.063.094z" style="fill:var(--color26, #d80729)"/>
    </symbol>
    <symbol id="icon-ua" viewBox="0 0 32 32">
      <path fill="#348af2" d="M14.531-.031h2.875c4.117.433 7.575 2.163 10.375 5.188a.687.687 0 0 0 .313.375c2.247 2.578 3.538 5.578 3.875 9v1.438h-32v-1.438C.649 8.929 3.42 4.711 8.282 1.876a16.932 16.932 0 0 1 6.25-1.906z" style="fill:var(--color27, #348af2)"/>
      <path fill="#78a6bd" d="M27.781 5.156a.692.692 0 0 1 .313.375.692.692 0 0 1-.313-.375z" opacity=".992" style="fill:var(--color28, #78a6bd)"/>
      <path fill="#ffda44" d="M-.031 15.969h32v1.438c-.68 5.603-3.451 9.822-8.313 12.656a16.932 16.932 0 0 1-6.25 1.906h-2.875c-5.603-.68-9.822-3.451-12.656-8.313a16.932 16.932 0 0 1-1.906-6.25v-1.438z" opacity=".998" style="fill:var(--color29, #ffda44)"/>
    </symbol>
    <symbol id="icon-de" viewBox="0 0 32 32">
      <path d="M14.531-.031h2.875c5.603.68 9.822 3.451 12.656 8.313.366.692.689 1.4.969 2.125H.906C3.002 5.175 6.773 1.832 12.219.376a33.58 33.58 0 0 1 2.313-.406z" opacity=".994" style="fill:var(--color1, #000)"/>
      <path fill="#d80026" d="M.906 10.406h30.125c.472 1.346.785 2.721.938 4.125v2.875c-.168 1.4-.48 2.775-.938 4.125H.906a18.476 18.476 0 0 1-.938-4.125v-2.875c.153-1.404.465-2.779.938-4.125z" opacity=".998" style="fill:var(--color2, #d80026)"/>
      <path fill="#fed943" d="M.906 21.531h30.125c-2.135 5.333-5.989 8.697-11.563 10.094a25.37 25.37 0 0 1-2.125.344H14.53c-5.603-.681-9.822-3.451-12.656-8.313-.366-.692-.689-1.4-.969-2.125z" opacity=".998" style="fill:var(--color3, #fed943)"/>
    </symbol>
    <symbol id="icon-pt" viewBox="0 0 32 32">
      <path fill="#e64b3b" d="M10.781 30.094v-7.25c.128.001.253.021.375.063.298-.087.59-.171.875-.25h.063a6.708 6.708 0 0 0 3.25-1.625l.688-.625c.164-.018.268-.102.313-.25.062-.122.125-.247.188-.375a.905.905 0 0 1 .25-.375c.125 0 .188-.063.188-.188a.405.405 0 0 0-.063-.281 6.182 6.182 0 0 0 .688-2.031 3.51 3.51 0 0 1 .188-.563c-.003-.057-.023-.099-.063-.125a2.045 2.045 0 0 0 0-.625l-.125-.688a12.081 12.081 0 0 0-.563-1.813c.019-.041.04-.082.063-.125l-.188-.25c-.109-.081-.13-.174-.063-.281a.464.464 0 0 0-.188-.219.448.448 0 0 1-.188-.125.436.436 0 0 0-.188-.25 9.886 9.886 0 0 0-.938-.938 3.992 3.992 0 0 0-.938-.688 1.853 1.853 0 0 0-.688-.375 4.13 4.13 0 0 0-.875-.375 26.68 26.68 0 0 0-1.125-.25 3.51 3.51 0 0 1-.563-.188 1.2 1.2 0 0 1-.375.063v-7.25C15.588.232 20.13.784 24.404 3.498c4.856 3.562 7.013 8.364 6.469 14.406-.757 4.961-3.288 8.701-7.594 11.219-4.032 2.108-8.199 2.431-12.5.969z" opacity=".998" style="fill:var(--color4, #e64b3b)"/>
      <path fill="#27ad5f" d="M10.719 1.906c.021 2.406 0 4.802-.063 7.188-.015-.037-.046-.058-.094-.063-.197.088-.395.15-.594.188h-.125a1.345 1.345 0 0 0-.813.25 2.203 2.203 0 0 0-.75.219 7.683 7.683 0 0 0-2.875 2.219 1.842 1.842 0 0 1-.313.188.541.541 0 0 0-.125.438 2.308 2.308 0 0 1-.25.438.188.188 0 0 0-.125.125.14.14 0 0 0-.094.063c-.031.144-.041.29-.031.438l-.313 1.125a2.404 2.404 0 0 0-.125.813c-.042 0-.063.021-.063.063-.001.23-.022.47-.063.719.077.134.139.27.188.406v.063c-.004.245.037.474.125.688.099.358.224.712.375 1.063l.125.375c-.037.196.026.341.188.438.088.03.13.092.125.188-.017.231.087.377.313.438.036.141.12.245.25.313.208.333.479.604.813.813.379.296.775.567 1.188.813a4.1 4.1 0 0 0 .875.375.915.915 0 0 0 .25.125c.414.12.831.224 1.25.313.198.037.396.1.594.188.048-.004.079-.025.094-.063.062 2.385.083 4.781.063 7.188-4.507-1.747-7.538-4.914-9.094-9.5-1.532-5.474-.47-10.369 3.188-14.688a14.56 14.56 0 0 1 5.906-3.938z" opacity=".995" style="fill:var(--color5, #27ad5f)"/>
      <path fill="#dd0" d="M11.219 9.344v1.876a8.573 8.573 0 0 1-.125-2.063c.004-.034.025-.055.063-.063a.305.305 0 0 1 .063.25z" style="fill:var(--color6, #dd0)"/>
      <path fill="#5c6408" d="M10.656 9.094a9.1 9.1 0 0 0-.125 2.125h-.063V9.906h-.25a.553.553 0 0 1 .25-.094.777.777 0 0 0-.438 0c-.487.085-.966.2-1.438.344a4.426 4.426 0 0 1 1.875-.438v-.375a2.857 2.857 0 0 1-.75.031l.75-.125a2.043 2.043 0 0 0-.5-.031c.198-.037.396-.1.594-.188.048.004.079.025.094.063z" style="fill:var(--color7, #5c6408)"/>
      <path fill="#c4c400" d="M10.656 9.094c0 .042.021.063.063.063v2.063h-.188a9.1 9.1 0 0 1 .125-2.125z" style="fill:var(--color8, #c4c400)"/>
      <path fill="#feff00" d="M10.719 9.156h.313v2.063h-.313V9.156z" style="fill:var(--color9, #feff00)"/>
      <path fill="#767606" d="M11.031 9.156h.063c-.04.712.001 1.399.125 2.063v.063h-.688v-.063h.501V9.156z" style="fill:var(--color10, #767606)"/>
      <path fill="#6b6329" d="M10.781 1.844v7.25c.128-.001.253-.021.375-.063.19.081.377.143.563.188-.147-.01-.293 0-.438.031.228.048.457.09.688.125-.23.028-.46.018-.688-.031h-.063a.302.302 0 0 0-.063-.25c-.038.008-.059.029-.063.063h-.376c-.042 0-.063-.021-.063-.063.062-2.385.083-4.781.063-7.188 0-.042.021-.063.063-.063z" style="fill:var(--color11, #6b6329)"/>
      <path fill="#fbfb00" d="M9.844 9.219h.125c.168-.01.335 0 .5.031l-.75.125a2.9 2.9 0 0 0 .75-.031v.375a4.426 4.426 0 0 0-1.875.438 3.866 3.866 0 0 0-1.688 1 .448.448 0 0 0-.188.125c-.154.123-.3.258-.438.406a1.383 1.383 0 0 1-.563.125.431.431 0 0 0 .188-.281 12.016 12.016 0 0 1 2.063-1.563.7.7 0 0 0 .438-.188c.414-.12.83-.235 1.25-.344l-.313-.063c.18-.034.347-.086.5-.156z" style="fill:var(--color12, #fbfb00)"/>
      <path fill="#f7f700" d="M11.719 9.219c.375.075.75.158 1.125.25a1.55 1.55 0 0 1-.5.031c.603.178 1.186.386 1.75.625a1.128 1.128 0 0 1-.375-.281c.26.078.489.203.688.375a.314.314 0 0 0-.188.031c.473.33.932.673 1.375 1.031a2.351 2.351 0 0 0-.313-.344.057.057 0 0 1 .063-.031c.335.293.648.606.938.938a.152.152 0 0 1-.031.125c-.078-.147-.183-.189-.313-.125l-.469-.156a1.172 1.172 0 0 0-.438-.344.412.412 0 0 0-.188-.188 4.905 4.905 0 0 0-2.25-1.188 3.358 3.358 0 0 0-1.313-.25v-.375c.228.049.457.059.688.031-.23-.035-.46-.077-.688-.125.144-.031.29-.041.438-.031z" style="fill:var(--color13, #f7f700)"/>
      <path fill="#969805" d="M9.844 9.219c-.153.07-.32.122-.5.156l.313.063c-.42.109-.836.223-1.25.344a8.41 8.41 0 0 0 .625-.313c.236-.169.507-.252.813-.25z" style="fill:var(--color14, #969805)"/>
      <path fill="#770" d="M11.219 9.344h.063v.375c.462-.003.899.08 1.313.25a7.1 7.1 0 0 0-1.313-.156c.077.014.14.046.188.094h-.251v-.563z" style="fill:var(--color15, #770)"/>
      <path fill="#b7b700" d="M12.844 9.469c.31.093.602.218.875.375.077.098.202.192.375.281a16.325 16.325 0 0 0-1.75-.625c.178.016.344.006.5-.031z" style="fill:var(--color16, #b7b700)"/>
      <path fill="#29a85c" d="M10.219 9.906h.25v1.313c-1.115.021-2.219 0-3.313-.063a4.131 4.131 0 0 1 1.563-.875c.205-.027.393-.089.563-.188.183-.004.35-.046.5-.125a.819.819 0 0 1 .438-.063z" style="fill:var(--color17, #29a85c)"/>
      <path fill="#efef00" d="M12.594 9.969c.095.057.199.109.313.156a.306.306 0 0 1-.188.031 3.72 3.72 0 0 0-1.25-.25.35.35 0 0 0-.188-.094 7.11 7.11 0 0 1 1.313.156z" style="fill:var(--color18, #efef00)"/>
      <path fill="#df4b39" d="M11.281 9.906h.188c.433.012.85.095 1.25.25.227.135.477.229.75.281.241.129.47.264.688.406.03.088.092.13.188.125a.436.436 0 0 1 .25.188 44.42 44.42 0 0 1-3.313.063V9.906z" style="fill:var(--color19, #df4b39)"/>
      <path fill="#cccd00" d="M9.031 9.469a8.41 8.41 0 0 1-.625.313.7.7 0 0 0-.438.188c-.741.444-1.429.965-2.063 1.563a.975.975 0 0 0-.375.438c-.062.011-.104-.01-.125-.063A7.693 7.693 0 0 1 8.28 9.689c.238-.118.488-.19.75-.219z" style="fill:var(--color20, #cccd00)"/>
      <path fill="#afac04" d="M12.594 9.969c.86.2 1.61.596 2.25 1.188-.021.052-.063.073-.125.063l-.125-.063a.44.44 0 0 0-.25-.188c-.03-.088-.092-.13-.188-.125a8.774 8.774 0 0 0-.688-.406 2.295 2.295 0 0 1-.75-.281.314.314 0 0 0 .188-.031 2.403 2.403 0 0 1-.313-.156z" style="fill:var(--color21, #afac04)"/>
      <path fill="#d1d100" d="M10.219 9.906a.8.8 0 0 0-.438.063.787.787 0 0 0-.5.125.915.915 0 0 0-.563.188c-.589.18-1.11.472-1.563.875-.091.074-.175.074-.25 0a3.86 3.86 0 0 1 1.688-1c.471-.144.95-.258 1.438-.344a.777.777 0 0 1 .438 0 .542.542 0 0 0-.25.094z" style="fill:var(--color22, #d1d100)"/>
      <path fill="#bb0" d="M14.406 10.219c.346.184.659.413.938.688-.027-.004-.048.006-.063.031.117.107.221.221.313.344a23.904 23.904 0 0 0-1.375-1.031.306.306 0 0 1 .188-.031z" style="fill:var(--color23, #bb0)"/>
      <path fill="#29452d" d="M6.906 11.156c.075.074.159.074.25 0a44.42 44.42 0 0 0 3.313.063h.063v.063H6.844c-.042 0-.063.021-.063.063-.042 0-.063-.021-.063-.063a.442.442 0 0 1 .188-.125z" style="fill:var(--color24, #29452d)"/>
      <path fill="#693128" d="M11.219 9.906h.063v1.313c1.115.021 2.219 0 3.313-.063l.125.063v.063h-3.5V9.906z" style="fill:var(--color25, #693128)"/>
      <path fill="#898e86" d="M6.844 11.281v6.063a1.46 1.46 0 0 0-.25-.188c.105.013.167-.028.188-.125V11.655a.314.314 0 0 1-.188-.031.431.431 0 0 0 .188-.281c0-.042.021-.063.063-.063z" style="fill:var(--color26, #898e86)"/>
      <path fill="#f0f0ef" d="M6.844 11.281h8.064c.019 2.105-.002 4.21-.063 6.313a1.363 1.363 0 0 1-.188.625.365.365 0 0 0-.125.25.188.188 0 0 1-.125-.125c.177-.301.281-.635.313-1 .062-1.969.083-3.948.063-5.938H6.908c-.021 1.927 0 3.844.063 5.75v.125a.81.81 0 0 1-.031.313.347.347 0 0 0-.094-.188V11.28z" style="fill:var(--color27, #f0f0ef)"/>
      <path fill="#724d49" d="M14.719 17.344v-5.875h-7.75v5.688a134.063 134.063 0 0 1-.063-5.75h7.875c.021 1.99 0 3.969-.063 5.938z" style="fill:var(--color28, #724d49)"/>
      <path fill="#f0f000" d="M15.031 11.344c.07.102.154.196.25.281a.152.152 0 0 1-.125.031 23.396 23.396 0 0 0-.188-.25c.008-.038.029-.059.063-.063z" style="fill:var(--color29, #f0f000)"/>
      <path fill="#e14b3b" d="M14.719 17.344a2.353 2.353 0 0 1-.313 1 4.372 4.372 0 0 1-2.438 2.125 7.759 7.759 0 0 1-1.625.125 1.143 1.143 0 0 0-.563-.125c-1.377-.419-2.273-1.314-2.688-2.688a1.78 1.78 0 0 0-.125-.5v-5.813h7.75v5.875z" style="fill:var(--color30, #e14b3b)"/>
      <path fill="#6c3715" d="M11.406 11.906c.011-.062-.01-.104-.063-.125a.426.426 0 0 1-.313-.063c-.018-.072-.07-.114-.156-.125l-.156.063c.008.038.029.059.063.063v.063c-.081-.015-.143.006-.188.063a.712.712 0 0 0-.219-.063.152.152 0 0 0-.031.125v.063a.292.292 0 0 1-.063-.25h.375v-.188h.438v.188h.375c.015.081-.006.143-.063.188z" style="fill:var(--color31, #6c3715)"/>
      <path fill="#b2ae01" d="M11.031 11.719h-.25c-.034-.004-.055-.025-.063-.063l.156-.063c.086.011.138.053.156.125z" style="fill:var(--color32, #b2ae01)"/>
      <path fill="#6b3615" d="M14.531 11.906c.006-.137-.036-.158-.125-.063a.436.436 0 0 0-.313-.063c.019-.041.04-.082.063-.125a.453.453 0 0 0-.313-.063.3.3 0 0 1-.125.25.712.712 0 0 0-.219-.063.152.152 0 0 0-.031.125v.063a.292.292 0 0 1-.063-.25h.375v-.188h.438v.188h.375c.015.081-.006.143-.063.188z" style="fill:var(--color33, #6b3615)"/>
      <path fill="#757301" d="M15.031 11.344c.172.078.318.192.438.344l.469.156c.13-.064.234-.022.313.125a.152.152 0 0 0 .031-.125.44.44 0 0 1 .188.25 28.443 28.443 0 0 1-1.313-.438.152.152 0 0 0 .125-.031 1.574 1.574 0 0 1-.25-.281z" style="fill:var(--color34, #757301)"/>
      <path fill="#f8f800" d="M5.844 12.281a3.678 3.678 0 0 0-.75-.188c.275.003.545.013.813.031a.206.206 0 0 1-.125-.094c.31-.072.623-.135.938-.188v.313c-.22.063-.439.063-.656 0-.11.028-.1.059.031.094-.081.031-.164.041-.25.031z" style="fill:var(--color35, #f8f800)"/>
      <path fill="#9c9802" d="M7.531 11.594a.611.611 0 0 1 .375.063c-.023.043-.043.084-.063.125-.206-.011-.227.031-.063.125-.058.066-.12.066-.188 0 .015-.081-.006-.143-.063-.188v-.125z" style="fill:var(--color36, #9c9802)"/>
      <path fill="#f9f900" d="M14.969 11.844c.573.07 1.114.237 1.625.5.056.048.097.11.125.188-.029.05-.07.071-.125.063a2.805 2.805 0 0 0-1.125-.281l.875.25a1.96 1.96 0 0 1-.5-.031 1.148 1.148 0 0 0-.563-.125.572.572 0 0 1-.313-.188.721.721 0 0 0 .438.031 3.318 3.318 0 0 0-.438-.094v-.313z" style="fill:var(--color37, #f9f900)"/>
      <path fill="#5a5c03" d="M5.406 11.906c.021.052.063.073.125.063.067.058.15.079.25.063a.21.21 0 0 0 .125.094 13.544 13.544 0 0 0-.813-.031c.107-.05.212-.113.313-.188z" style="fill:var(--color38, #5a5c03)"/>
      <path fill="#d5d400" d="M7.219 11.969h.25v.188h-.25v-.188z" style="fill:var(--color39, #d5d400)"/>
      <path fill="#afaf00" d="M15.156 11.656c.429.155.866.3 1.313.438a.442.442 0 0 0 .188.125l-.063.125a4.792 4.792 0 0 0-1.625-.5v-.188h.188z" style="fill:var(--color40, #afaf00)"/>
      <path fill="#5e6003" d="M5.094 12.094c.256.036.506.098.75.188a2.834 2.834 0 0 0-.688-.031 1.786 1.786 0 0 1-.188.281.542.542 0 0 1 .125-.438z" style="fill:var(--color41, #5e6003)"/>
      <path fill="#5c3f0c" d="M7.531 11.594a.819.819 0 0 1 .438-.063v.188a.426.426 0 0 1 .313.063.789.789 0 0 1-.375.063c.118.06.243.081.375.063a.854.854 0 0 1 0 .438 1.242 1.242 0 0 0-.563-.125c-.199 0-.387.021-.563.063-.079-.07-.058-.112.063-.125h.25v-.188h-.25a.292.292 0 0 1-.063-.25h.375c.056.044.077.107.063.188v.25h.25v-.375c.019-.041.04-.082.063-.125a.626.626 0 0 0-.375-.063z" style="fill:var(--color42, #5c3f0c)"/>
      <path fill="#d8d800" d="M7.969 11.969h.25v.188h-.25v-.188z" style="fill:var(--color43, #d8d800)"/>
      <path fill="#f8f800" d="M7.844 11.781v.375h-.25v-.25c.067.066.13.066.188 0-.164-.094-.144-.136.063-.125z" style="fill:var(--color35, #f8f800)"/>
      <path fill="#fdfd00" d="M5.844 12.281c.278.128.57.232.875.313a2.33 2.33 0 0 1-.125 1.063c-.288-.175-.6-.3-.938-.375a5.5 5.5 0 0 0-.625-.25.426.426 0 0 1-.313-.063c.099-.135.182-.281.25-.438.069-.084.131-.178.188-.281.229-.017.459-.007.688.031z" style="fill:var(--color44, #fdfd00)"/>
      <path fill="#706506" d="M10.781 11.719h.25c.089.059.193.08.313.063a.553.553 0 0 1-.25.094c.102.031.206.041.313.031a.923.923 0 0 1 0 .5h-1.063v.375h.625c.012-.247.043-.247.094 0 .05-.247.082-.247.094 0h.25c.12.013.141.055.063.125h-1.188c-.034-.004-.055-.025-.063-.063.05-.29.091-.582.125-.875v-.063c.142.022.225.001.25-.063.044-.056.107-.077.188-.063v-.063z" style="fill:var(--color45, #706506)"/>
      <path fill="#d6d600" d="M11.094 11.969h.25v.188h-.25v-.188z" style="fill:var(--color46, #d6d600)"/>
      <path fill="#f8f800" d="M10.406 11.969a.21.21 0 0 1 .094.125c.068-.152.099-.131.094.063h-.188v-.188z" style="fill:var(--color35, #f8f800)"/>
      <path fill="#e2e207" d="M10.781 11.781h.188v.375h-.188v-.375z" style="fill:var(--color47, #e2e207)"/>
      <path fill="#4a3c26" d="M14.844 11.156a.412.412 0 0 1 .188.188c-.034.004-.055.025-.063.063l.188.25h-.188V12.221a.574.574 0 0 0 .313.188h-.313v.375h.25a.439.439 0 0 0-.25.188v.501c.044.056.107.077.188.063-.044.056-.107.077-.188.063v1.063c.1-.017.183.004.25.063-.124-.021-.207.02-.25.125v.438a.574.574 0 0 0 .313.188h-.313v.938h.188l-.188.125v.625h.188v.125c-.179-.102-.22-.06-.125.125a.346.346 0 0 0-.188.188c.06-2.103.081-4.207.063-6.313h-.188v-.063c.062.011.104-.01.125-.063z" style="fill:var(--color48, #4a3c26)"/>
      <path fill="#f8f800" d="M14.156 12.469c.136-.084.261-.063.375.063v.25h-.25c.024-.137-.018-.242-.125-.313z" style="fill:var(--color35, #f8f800)"/>
      <path fill="#c74a31" d="M15.281 12.406c.2-.006.387.036.563.125l-.063.125a1.82 1.82 0 0 1-.563.125h-.25v-.375h.313z" style="fill:var(--color49, #c74a31)"/>
      <path fill="#dedd00" d="M8.281 12.594v.188h-.25c-.012-.247-.043-.247-.094 0l-.063-.125c-.104.167-.208.167-.313 0-.042.167-.083.167-.125 0a.204.204 0 0 1-.219.125v-.375a.348.348 0 0 1 .344.125l.094-.094c.186-.031.374-.042.563-.031-.015.081.006.143.063.188z" style="fill:var(--color50, #dedd00)"/>
      <path fill="#dad901" d="M11.406 12.406v.375h-.25c-.012-.247-.043-.247-.094 0-.05-.247-.082-.247-.094 0h-.625v-.375h1.063z" style="fill:var(--color51, #dad901)"/>
      <path fill="#9b9a01" d="M16.594 12.594c.08.089.184.131.313.125l.188.25a2.444 2.444 0 0 0-.063.125 4.725 4.725 0 0 1-.156-.188l-.031.063a.445.445 0 0 1 .094.375 6.711 6.711 0 0 0-.281-.531.39.39 0 0 0-.375-.031c.161.279.286.571.375.875a1.648 1.648 0 0 1-.219-.375.057.057 0 0 0-.031.063h-.063c.006-.137-.036-.158-.125-.063a1.089 1.089 0 0 0-.219-.5 1.387 1.387 0 0 1-.594.125c.153-.07.32-.122.5-.156l.063-.063a.306.306 0 0 0-.188-.031l.063-.125c.167.032.334.042.5.031l-.875-.25c.398.016.773.11 1.125.281z" style="fill:var(--color52, #9b9a01)"/>
      <path fill="#6c6706" d="M16.656 12.219a.47.47 0 0 1 .188.219c-.068.107-.047.201.063.281a.377.377 0 0 1-.313-.125c.055.008.096-.013.125-.063a.439.439 0 0 0-.125-.188l.063-.125z" style="fill:var(--color53, #6c6706)"/>
      <path fill="#979801" d="M6.719 11.281c0 .042.021.063.063.063a.425.425 0 0 1-.188.281c.059.03.122.041.188.031v3.625a5.15 5.15 0 0 0-1.438.375.915.915 0 0 1-.25.125.292.292 0 0 0-.25-.063 7.79 7.79 0 0 1 1.875-.5c.01-.127 0-.252-.031-.375a.496.496 0 0 1-.406.031c.149-.032.295-.074.438-.125a1.587 1.587 0 0 0-.688.094v-.125a1.964 1.964 0 0 0 0-.188l.25.188a.972.972 0 0 1 .438-.063 2.312 2.312 0 0 0-.063-.75 1.124 1.124 0 0 1-.313-.188.5.5 0 0 1 .344.125c.015-.081-.016-.143-.094-.188.122-.327.164-.681.125-1.063a5.406 5.406 0 0 1-.875-.313.532.532 0 0 0 .25-.031c-.131-.035-.141-.066-.031-.094.217.063.436.063.656 0v-.313a14.96 14.96 0 0 0-.938.188.286.286 0 0 1-.25-.063.985.985 0 0 1 .375-.438.425.425 0 0 1-.188.281c.192-.001.379-.043.563-.125.138-.148.284-.284.438-.406z" style="fill:var(--color54, #979801)"/>
      <path fill="#f7f700" d="M17.031 13.094c.237.595.424 1.199.563 1.813.019.201-.001.388-.063.563a2.916 2.916 0 0 0-.094-.688.766.766 0 0 0 .031.5c-.104.045-.208.024-.313-.063a40.947 40.947 0 0 1-.281-1 4 4 0 0 0 .156.906.152.152 0 0 1-.125.031 2.02 2.02 0 0 0-.188-.813.695.695 0 0 0-.125-.438 4.426 4.426 0 0 0-.188-.563c-.004-.027.006-.048.031-.063.059.139.132.264.219.375a3.988 3.988 0 0 0-.375-.875.39.39 0 0 1 .375.031c.102.172.195.349.281.531a.441.441 0 0 0-.094-.375l.031-.063c.053.067.105.129.156.188z" style="fill:var(--color13, #f7f700)"/>
      <path fill="#7b7503" d="M8.281 12.344v.25c-.056-.044-.077-.107-.063-.188a2.59 2.59 0 0 0-.563.031l-.094.094a.348.348 0 0 0-.344-.125v.375a.205.205 0 0 0 .219-.125c.042.167.083.167.125 0 .104.167.208.167.313 0l.063.125c.05-.247.082-.247.094 0h.25c.034.004.055.025.063.063a3.169 3.169 0 0 1-1.25 0c.057-.183.077-.37.063-.563a2.47 2.47 0 0 1 .563-.063c.213.001.401.043.563.125z" style="fill:var(--color55, #7b7503)"/>
      <path fill="#736507" d="M14.094 11.781a.426.426 0 0 1 .313.063.314.314 0 0 0-.188.031c.102.031.206.041.313.031.07.21.07.418 0 .625-.114-.126-.239-.146-.375-.063.107.071.149.175.125.313h.25c.055-.008.096.013.125.063a3.493 3.493 0 0 1-1.313 0c.05-.29.091-.582.125-.875v-.063c.142.022.225.001.25-.063a.3.3 0 0 0 .125-.25.443.443 0 0 1 .313.063c-.023.043-.043.084-.063.125z" style="fill:var(--color56, #736507)"/>
      <path fill="#d4d300" d="M14.156 12.469a1.317 1.317 0 0 0-.063.313h-.625v-.375c.245.018.474.039.688.063z" style="fill:var(--color57, #d4d300)"/>
      <path fill="#d6d500" d="M14.219 11.969h.25v.188h-.25v-.188z" style="fill:var(--color58, #d6d500)"/>
      <path fill="#f7f700" d="M13.531 11.969a.21.21 0 0 1 .094.125c.068-.152.099-.131.094.063h-.188v-.188z" style="fill:var(--color13, #f7f700)"/>
      <path fill="#e3e304" d="M14.094 11.781v.375h-.188v-.375h.188z" style="fill:var(--color59, #e3e304)"/>
      <path fill="#efef00" d="M15.781 12.656a.314.314 0 0 1 .188.031l-.063.063c-.18.034-.347.086-.5.156a1.35 1.35 0 0 0-.438.063.443.443 0 0 1 .25-.188c.196-.012.383-.054.563-.125z" style="fill:var(--color18, #efef00)"/>
      <path fill="#fbfb00" d="M16.219 13.281a4.896 4.896 0 0 0-.75.188.57.57 0 0 0-.313.063c-.081.015-.143-.006-.188-.063.379-.074.754-.168 1.125-.281l-1.125.156v-.313c.16-.014.306-.056.438-.125.209.002.406-.04.594-.125a1.1 1.1 0 0 1 .219.5z" style="fill:var(--color12, #fbfb00)"/>
      <path fill="#84423a" d="M10.281 12.906h1.188c.572.062 1.155.083 1.75.063.021 1.386 0 2.761-.063 4.125v-4.063H8.531l1.75-.125z" style="fill:var(--color60, #84423a)"/>
      <path fill="#fcfcfc" d="M8.531 13.031h4.625v4.063c-.425 1.475-1.404 2.111-2.938 1.906-.797-.33-1.349-.903-1.656-1.719-.031-1.416-.042-2.833-.031-4.25z" style="fill:var(--color61, #fcfcfc)"/>
      <path fill="#aeae00" d="M5.031 13.031a5.5 5.5 0 0 1 .625.25.314.314 0 0 0-.188.031l.25.125a1.113 1.113 0 0 1-.375-.031c-.067-.075-.119-.054-.156.063a.306.306 0 0 1-.031-.188h-.313a.443.443 0 0 0-.25-.188.8.8 0 0 0 .438-.063z" style="fill:var(--color62, #aeae00)"/>
      <path fill="#f5f500" d="M4.781 13.281h.376a.314.314 0 0 0 .031.188c.038-.116.09-.137.156-.063a.376.376 0 0 0-.125.313.956.956 0 0 0-.188.438.815.815 0 0 1-.031-.375 1.67 1.67 0 0 0-.188.813c.01-.115.041-.157.094-.125a3.952 3.952 0 0 1-.125.688.35.35 0 0 1-.094-.188.36.36 0 0 1-.219.313.177.177 0 0 0-.156.063 5.959 5.959 0 0 1 .469-2.063z" style="fill:var(--color63, #f5f500)"/>
      <path fill="#4b5308" d="M4.594 13.094a.439.439 0 0 1 .25.188h-.063c-.004-.034-.025-.055-.063-.063-.085.129-.168.254-.25.375-.01-.147 0-.293.031-.438a.14.14 0 0 1 .094-.063z" style="fill:var(--color64, #4b5308)"/>
      <path fill="#de4b39" d="M16.344 13.344h.063c.075.183.137.37.188.563a.542.542 0 0 0 .125.438c.038.227.059.456.063.688h-.25a30.21 30.21 0 0 1-1.313-.313.292.292 0 0 0-.25-.063v-1.063c.081.015.143-.006.188-.063.096-.05.2-.071.313-.063.295-.022.586-.063.875-.125z" style="fill:var(--color65, #de4b39)"/>
      <path fill="#f9f900" d="M5.656 13.281c.092.073.196.136.313.188a.223.223 0 0 1-.063.094c.134.088.28.14.438.156.09.077.194.139.313.188.062.247.083.497.063.75a.963.963 0 0 0-.438.063l-.25-.188c.003.064.003.126 0 .188a6.412 6.412 0 0 1-.875-.625.152.152 0 0 1 .031-.125.245.245 0 0 0 .219.125.498.498 0 0 1-.188-.375.376.376 0 0 0 .125-.313c.126.032.251.043.375.031l-.25-.125a.306.306 0 0 1 .188-.031z" style="fill:var(--color37, #f9f900)"/>
      <path fill="#4c79a9" d="M10.344 13.594h1.063c.01.292 0 .584-.031.875-.14.398-.4.513-.781.344a1 1 0 0 1-.219-.344c-.031-.291-.042-.583-.031-.875z" style="fill:var(--color66, #4c79a9)"/>
      <path fill="#c3c300" d="M5.656 13.281c.337.075.65.2.938.375.077.044.109.107.094.188a.5.5 0 0 0-.344-.125.972.972 0 0 1-.438-.156.233.233 0 0 0 .063-.094 1.453 1.453 0 0 1-.313-.188z" style="fill:var(--color67, #c3c300)"/>
      <path fill="#e5ecf3" d="M11.094 13.781h.188v.188h-.188v-.188z" style="fill:var(--color68, #e5ecf3)"/>
      <path fill="#575b06" d="M5.219 13.719c.007.153.07.278.188.375a.245.245 0 0 1-.219-.125.152.152 0 0 0-.031.125l-.125.188v-.125a.95.95 0 0 1 .188-.438z" style="fill:var(--color69, #575b06)"/>
      <path fill="#329a50" d="M5.156 14.094c.274.233.566.441.875.625v.125a7.564 7.564 0 0 0-1.063.25.211.211 0 0 1-.063-.156c.057-.217.098-.435.125-.656l.125-.188z" style="fill:var(--color70, #329a50)"/>
      <path fill="#afaf00" d="M5.031 14.156v.125l-.125.188c-.053-.032-.084.01-.094.125A1.658 1.658 0 0 1 5 13.781a.829.829 0 0 0 .031.375z" style="fill:var(--color40, #afaf00)"/>
      <path fill="#3f490a" d="M5.031 14.281c-.027.221-.068.44-.125.656a.211.211 0 0 0 .063.156c-.044.056-.107.077-.188.063.062-.223.103-.453.125-.688l.125-.188z" style="fill:var(--color71, #3f490a)"/>
      <path fill="#e5ebf3" d="M11.094 14.344h.188v.188h-.188v-.188z" style="fill:var(--color72, #e5ebf3)"/>
      <path fill="#b7b700" d="M4.781 13.281a5.954 5.954 0 0 0-.469 2.063.18.18 0 0 1 .156-.063h.063c.044.056.107.077.188.063a10.1 10.1 0 0 0-.594.375.405.405 0 0 0 0 .313c.222-.148.462-.252.719-.313.1-.017.183.004.25.063-.062-.011-.104.01-.125.063a.378.378 0 0 0-.313.125c-.081-.015-.143.006-.188.063-.021.052-.063.073-.125.063a.818.818 0 0 1-.313.094l.063-.063a4.763 4.763 0 0 1-.125-.531c0-.042.021-.063.063-.063a.152.152 0 0 0 .125-.031 3.002 3.002 0 0 1 0-.781l.313-1.125c.082-.121.165-.246.25-.375.038.008.059.029.063.063z" style="fill:var(--color16, #b7b700)"/>
      <path fill="#c5c500" d="M15.219 14.719c.434.114.871.218 1.313.313a.676.676 0 0 0 .375.125c.188.136.397.24.625.313.096.089.075.131-.063.125a15.98 15.98 0 0 1-1.063-.438.695.695 0 0 0-.438-.125 8.558 8.558 0 0 1-1-.188c.043-.105.126-.146.25-.125z" style="fill:var(--color73, #c5c500)"/>
      <path fill="#f7f700" d="M4.844 15.719a2.213 2.213 0 0 0-.719.313.405.405 0 0 1 0-.313 10.1 10.1 0 0 1 .594-.375c-.081.015-.143-.006-.188-.063a.365.365 0 0 0 .25-.125c.081.015.143-.006.188-.063a7.564 7.564 0 0 1 1.063-.25 1.6 1.6 0 0 1 .688-.094 3.476 3.476 0 0 1-.438.125.5.5 0 0 0 .406-.031c.031.123.041.248.031.375a7.79 7.79 0 0 0-1.875.5z" style="fill:var(--color13, #f7f700)"/>
      <path fill="#fbfb00" d="M14.969 14.844c.328.082.661.144 1 .188a.695.695 0 0 0 .438.125c.344.157.698.303 1.063.438a.412.412 0 0 0 .188.188.426.426 0 0 1-.063.313 2.303 2.303 0 0 0-1.125-.5 6.62 6.62 0 0 0-1.5-.375v-.375z" style="fill:var(--color12, #fbfb00)"/>
      <path fill="#774517" d="M16.719 14.344c.117.251.18.522.188.813a.676.676 0 0 1-.375-.125h.25a4.411 4.411 0 0 0-.063-.688z" style="fill:var(--color74, #774517)"/>
      <path fill="#9a9601" d="M7.531 14.781a.611.611 0 0 1 .375.063c-.023.043-.043.084-.063.125-.206-.011-.227.031-.063.125-.058.066-.12.066-.188 0 .015-.081-.006-.143-.063-.188v-.125z" style="fill:var(--color75, #9a9601)"/>
      <path fill="#6e6e00" d="M4.781 15.156a.365.365 0 0 1-.25.125h-.063a.359.359 0 0 0 .219-.313c.014.077.046.14.094.188z" style="fill:var(--color76, #6e6e00)"/>
      <path fill="#d4d300" d="M7.219 15.156h.25v.188h-.25v-.188z" style="fill:var(--color57, #d4d300)"/>
      <path fill="#848400" d="M17.531 15.469a2.182 2.182 0 0 1-.625-.313.152.152 0 0 0 .125-.031 3.944 3.944 0 0 1-.156-.906c.09.335.184.669.281 1 .104.087.209.108.313.063a.766.766 0 0 1-.031-.5c.058.226.09.455.094.688z" style="fill:var(--color77, #848400)"/>
      <path fill="#67520a" d="M7.531 14.781a.819.819 0 0 1 .438-.063v.188a.426.426 0 0 1 .313.063.789.789 0 0 1-.375.063c.118.06.243.081.375.063a.982.982 0 0 1 0 .688c-.056-.044-.077-.107-.063-.188a2.59 2.59 0 0 0-.563.031l-.094.094a.348.348 0 0 0-.344-.125v.25h-.063a.963.963 0 0 0-.063-.438c.029-.05.07-.071.125-.063h.25v-.188h-.25a.292.292 0 0 1-.063-.25h.375c.056.044.077.107.063.188v.25h.25v-.375c.019-.041.04-.082.063-.125a.626.626 0 0 0-.375-.063z" style="fill:var(--color78, #67520a)"/>
      <path fill="#e0e000" d="M7.969 15.156h.25v.188h-.25v-.188z" style="fill:var(--color79, #e0e000)"/>
      <path fill="#f7f700" d="M7.844 14.969v.375h-.25v-.25c.067.066.13.066.188 0-.164-.094-.144-.136.063-.125z" style="fill:var(--color13, #f7f700)"/>
      <path fill="#a5bdd4" d="M9.969 15.406h-1v.875a3.543 3.543 0 0 1-.063-.938c.366-.02.72.001 1.063.063z" style="fill:var(--color80, #a5bdd4)"/>
      <path fill="#a3bcd4" d="M11.781 15.406a4.55 4.55 0 0 1 1.063-.063c.02.325-.001.637-.063.938v-.875h-1z" style="fill:var(--color81, #a3bcd4)"/>
      <path fill="#675409" d="M14.531 15.094a.923.923 0 0 1 0 .5.597.597 0 0 0-.375.063 17.872 17.872 0 0 0-.688-.063v.375h-.063a5.117 5.117 0 0 1 .063-.875c-.056-.044-.077-.107-.063-.188h.375v-.188h.438v.188h.375c.015.081-.006.143-.063.188z" style="fill:var(--color82, #675409)"/>
      <path fill="#d5d500" d="M14.219 15.156h.25v.188h-.25v-.188z" style="fill:var(--color83, #d5d500)"/>
      <path fill="#f7f700" d="M13.531 15.156a.21.21 0 0 1 .094.125c.068-.152.099-.131.094.063h-.188v-.188z" style="fill:var(--color13, #f7f700)"/>
      <path fill="#d1d003" d="M13.844 14.781a.443.443 0 0 1 .313.063 1.21 1.21 0 0 0-.063.5h-.188a1.839 1.839 0 0 0-.063-.563z" style="fill:var(--color84, #d1d003)"/>
      <path fill="#3e70a3" d="M9.969 15.406c.01.292 0 .584-.031.875-.126.339-.366.454-.719.344a.671.671 0 0 1-.25-.344v-.875h1z" style="fill:var(--color85, #3e70a3)"/>
      <path fill="#4373a5" d="M10.344 15.406h1.063c.01.292 0 .584-.031.875-.13.338-.37.452-.719.344a1.11 1.11 0 0 1-.281-.344c-.031-.291-.042-.583-.031-.875z" style="fill:var(--color86, #4373a5)"/>
      <path fill="#3f71a4" d="M11.781 15.406h1v.875c-.161.38-.432.474-.813.281a1.83 1.83 0 0 1-.156-.281c-.031-.291-.042-.583-.031-.875z" style="fill:var(--color87, #3f71a4)"/>
      <path fill="#309c52" d="M6.781 15.344v1.125h-.063a11.44 11.44 0 0 1-1.813-.438.14.14 0 0 0-.063-.094.206.206 0 0 0 .125-.094c.021-.052.063-.073.125-.063a.915.915 0 0 0 .25-.125 43.24 43.24 0 0 0 1.438-.313z" style="fill:var(--color88, #309c52)"/>
      <path fill="#d14b35" d="M15.281 15.469c.568.072 1.11.217 1.625.438v.125a8.829 8.829 0 0 1-1.75.375h-.188v-.938h.313z" style="fill:var(--color89, #d14b35)"/>
      <path fill="#f0ef00" d="M14.156 15.656a.603.603 0 0 1 .375-.063v.375h-.25c.024-.137-.018-.242-.125-.313z" style="fill:var(--color90, #f0ef00)"/>
      <path fill="#837f04" d="m17.594 14.906.125.688a.358.358 0 0 1-.063.188.412.412 0 0 1-.188-.188c.137.006.158-.036.063-.125.061-.174.082-.362.063-.563z" style="fill:var(--color91, #837f04)"/>
      <path fill="#dbda00" d="M8.281 15.781v.188h-.25c-.012-.247-.043-.247-.094 0l-.063-.125c-.104.167-.208.167-.313 0-.042.167-.083.167-.125 0-.086.164-.159.164-.219 0v-.25a.348.348 0 0 1 .344.125l.094-.094c.186-.031.374-.042.563-.031-.015.081.006.143.063.188z" style="fill:var(--color92, #dbda00)"/>
      <path fill="#dcdc00" d="M14.156 15.656a1.317 1.317 0 0 0-.063.313h-.188c.005-.194-.026-.214-.094-.063l-.063-.188c-.007.184-.101.268-.281.25v-.375c.245.018.474.039.688.063z" style="fill:var(--color93, #dcdc00)"/>
      <path fill="#e7edf4" d="M9.344 15.844h.188v.188h-.188v-.188z" style="fill:var(--color94, #e7edf4)"/>
      <path fill="#eaf0f5" d="M10.781 15.844h.188v.188h-.188v-.188z" style="fill:var(--color95, #eaf0f5)"/>
      <path fill="#e6ecf3" d="M12.219 15.844h.188v.188h-.188v-.188z" style="fill:var(--color96, #e6ecf3)"/>
      <path fill="#342f03" d="M17.719 15.594c.032.196.032.404 0 .625a.188.188 0 0 1-.125-.125.436.436 0 0 0 .063-.313.364.364 0 0 0 .063-.188z" style="fill:var(--color97, #342f03)"/>
      <path fill="#7f7703" d="M8.281 15.969c.034.004.055.025.063.063a3.169 3.169 0 0 1-1.25 0 .355.355 0 0 0 .063-.188h.063c.06.164.133.164.219 0 .042.167.083.167.125 0 .104.167.208.167.313 0l.063.125c.05-.247.082-.247.094 0h.25z" style="fill:var(--color98, #7f7703)"/>
      <path fill="#908804" d="M14.156 15.656c.107.071.149.175.125.313h.25c.034.004.055.025.063.063a3.169 3.169 0 0 1-1.25 0c.008-.038.029-.059.063-.063h.063c.181.018.274-.066.281-.25l.063.188c.068-.152.099-.131.094.063h.188c.008-.107.029-.211.063-.313z" style="fill:var(--color99, #908804)"/>
      <path fill="#d0d000" d="m14.969 15.281 1.5.313c.425.067.8.233 1.125.5a.188.188 0 0 0 .125.125c-.021.052-.063.073-.125.063a.778.778 0 0 0-.563-.313c-.021-.052-.063-.073-.125-.063a6.055 6.055 0 0 0-1.625-.438.572.572 0 0 1-.313-.188z" style="fill:var(--color100, #d0d000)"/>
      <path fill="#f8f800" d="M4.656 15.969c.102.233.164.483.188.75v.375a.152.152 0 0 1-.031.125l-.063-.188c.047.569.203 1.11.469 1.625-.087.144-.202.185-.344.125a9.708 9.708 0 0 1-.5-1.438c.021.389.115.764.281 1.125-.008.038-.029.059-.063.063a8.202 8.202 0 0 1-.375-1.063 11.34 11.34 0 0 0-.063-.688.314.314 0 0 1 .031-.188c.024.232.066.462.125.688a97.116 97.116 0 0 0-.031-1.063l.063-.125c.062.011.104-.01.125-.063.078.052.12.135.125.25.028.23.06.459.094.688.02-.334.009-.667-.031-1z" style="fill:var(--color35, #f8f800)"/>
      <path fill="#536013" d="M3.969 15.594c.032.181.073.358.125.531l-.063.063a.8.8 0 0 0 .313-.094l-.063.125c-.162.118-.225.285-.188.5a2.424 2.424 0 0 0-.188-.406c.041-.249.062-.489.063-.719z" style="fill:var(--color101, #536013)"/>
      <path fill="#f7f700" d="M4.906 16.031c.586.193 1.19.339 1.813.438a.211.211 0 0 1-.156.063 24.554 24.554 0 0 0-1.531-.281 8.106 8.106 0 0 0 1.688.344v.375a1.291 1.291 0 0 0-.563-.031c.204.065.412.096.625.094-.02.097-.083.138-.188.125a16.456 16.456 0 0 1-1.75-.438.35.35 0 0 1 .188-.094c-.215-.119-.236-.264-.063-.438-.116-.038-.137-.09-.063-.156z" style="fill:var(--color13, #f7f700)"/>
      <path fill="#434301" d="M16.906 15.906c.062-.011.104.01.125.063l-.125.625a2.208 2.208 0 0 1 0-.563v-.125z" style="fill:var(--color102, #434301)"/>
      <path fill="#8d8d00" d="M17.031 15.969a.773.773 0 0 1 .563.313 1.136 1.136 0 0 0-.094.375l-.063-.438a1.128 1.128 0 0 0-.219-.125 8.47 8.47 0 0 0-.219 1.125c.013-.415.024-.831.031-1.25z" style="fill:var(--color103, #8d8d00)"/>
      <path fill="#f4f400" d="M16.906 16.031a2.208 2.208 0 0 0 0 .563c-.081-.015-.143.006-.188.063.138.022.148.063.031.125-.21.049-.408.112-.594.188-.347.032-.68.094-1 .188h-.188v-.5a15.565 15.565 0 0 0 1.563-.344c-.516.082-1.037.155-1.563.219l.188-.125a8.829 8.829 0 0 0 1.75-.375z" style="fill:var(--color104, #f4f400)"/>
      <path fill="#4d5207" d="M4.969 15.844a.21.21 0 0 1-.125.094.14.14 0 0 1 .063.094c-.074.067-.054.119.063.156-.174.173-.153.319.063.438a.354.354 0 0 0-.188.094 2.363 2.363 0 0 0-.188-.75.376.376 0 0 1 .313-.125z" style="fill:var(--color105, #4d5207)"/>
      <path fill="#635d05" d="M17.719 16.219c.039.026.06.068.063.125-.081.19-.143.377-.188.563v-.625c.062.011.104-.01.125-.063z" style="fill:var(--color106, #635d05)"/>
      <path fill="#818100" d="M4.469 16.031c.044-.056.107-.077.188-.063.041.333.051.666.031 1a31.582 31.582 0 0 1-.094-.688c-.005-.115-.047-.198-.125-.25z" style="fill:var(--color107, #818100)"/>
      <path fill="#828200" d="M6.719 16.469h.063v.563a1.954 1.954 0 0 1-.625-.094c.189-.031.377-.021.563.031v-.375a8.055 8.055 0 0 1-1.688-.344c.509.077 1.02.171 1.531.281a.211.211 0 0 0 .156-.063z" style="fill:var(--color108, #828200)"/>
      <path fill="#b6b600" d="M4.281 16.219c.013.356.023.71.031 1.063a4.574 4.574 0 0 1-.125-.688.306.306 0 0 0-.031.188h-.063v-.063c-.037-.215.025-.382.188-.5z" style="fill:var(--color109, #b6b600)"/>
      <path fill="#2fa055" d="M4.844 16.719c.575.178 1.159.323 1.75.438.089.053.173.115.25.188v.063c.004.183.046.35.125.5a.676.676 0 0 1 .125.375 6.696 6.696 0 0 0-1.75.438 35.14 35.14 0 0 1-.5-1.625v-.375z" style="fill:var(--color110, #2fa055)"/>
      <path fill="#d54b36" d="M16.844 17.031a.426.426 0 0 1-.063.313.695.695 0 0 0-.125.438c-.056.044-.077.107-.063.188a.905.905 0 0 1-.25.313l-.188-.125-1-.875v-.125c.32-.093.653-.156 1-.188a1.7 1.7 0 0 0 .625-.125.197.197 0 0 1 .063.188z" style="fill:var(--color111, #d54b36)"/>
      <path fill="#764616" d="M16.719 16.656c.044-.056.107-.077.188-.063a.8.8 0 0 1-.063.438.193.193 0 0 0-.063-.188 1.7 1.7 0 0 1-.625.125c.186-.076.384-.138.594-.188.117-.062.107-.103-.031-.125z" style="fill:var(--color112, #764616)"/>
      <path fill="#4d79a9" d="M10.344 17.156h1.063c.01.292 0 .584-.031.875-.333.583-.667.583-1 0-.031-.291-.042-.583-.031-.875z" style="fill:var(--color113, #4d79a9)"/>
      <path fill="#e6ecf3" d="M11.094 17.344h.188v.188h-.188v-.188z" style="fill:var(--color96, #e6ecf3)"/>
      <path fill="#f9f900" d="M17.031 15.969c-.008.419-.018.835-.031 1.25a8.47 8.47 0 0 1 .219-1.125c.078.034.151.075.219.125l.063.438c.012-.138.043-.263.094-.375v.625a6.159 6.159 0 0 1-.688 2.031.406.406 0 0 1 .063.281.608.608 0 0 0-.188-.25.416.416 0 0 1 0 .438.905.905 0 0 0-.25.375c-.155.074-.217.199-.188.375l-.125-.125a.213.213 0 0 0-.094-.188 2.083 2.083 0 0 1-.156.375 7.193 7.193 0 0 1-4 2.281l.313.063a.354.354 0 0 0-.188.094h-.063a8.183 8.183 0 0 1-.75.063c.19-.095.398-.147.625-.156-.207-.031-.416-.042-.625-.031v-.313c.1.017.183-.004.25-.063.42-.005.816-.088 1.188-.25a5.215 5.215 0 0 0 2.438-1.406.152.152 0 0 0-.125-.031l.188-.25a.434.434 0 0 0 .156-.125l.063.125.531-.531a2.5 2.5 0 0 0-.625-.531.434.434 0 0 0-.125-.156l.313.063a3.718 3.718 0 0 0-.813-.594.435.435 0 0 1-.063-.25c.111-.188.174-.396.188-.625.037-.087.1-.15.188-.188.402.329.798.673 1.188 1.031.042.042.083.042.125 0l-.25-.25a.057.057 0 0 1 .063-.031l.188.125c.123.154.258.3.406.438a1.908 1.908 0 0 0-.219-.438c.034-.102.055-.206.063-.313-.015-.081.006-.143.063-.188a.695.695 0 0 0 .125-.438.436.436 0 0 0 .063-.313.809.809 0 0 0 .063-.438l.125-.625z" style="fill:var(--color37, #f9f900)"/>
      <path fill="#7b756e" d="M6.969 17.281c.064.154.106.32.125.5A.21.21 0 0 1 7 17.656c-.031.081-.041.164-.031.25a1.111 1.111 0 0 1-.125-.5.35.35 0 0 1 .094.188c.031-.102.041-.206.031-.313z" style="fill:var(--color114, #7b756e)"/>
      <path fill="#e4ebf2" d="M11.094 17.906h.188v.188h-.188v-.188z" style="fill:var(--color115, #e4ebf2)"/>
      <path fill="#c5c500" d="m15.156 17.281 1 .875c-.027-.004-.048.006-.063.031l.25.25c-.042.042-.083.042-.125 0a25.914 25.914 0 0 0-1.188-1.031c-.095-.185-.054-.227.125-.125z" style="fill:var(--color73, #c5c500)"/>
      <path fill="#b4b400" d="M4.844 17.094c.152.541.319 1.083.5 1.625.015.037.046.058.094.063.374-.149.76-.253 1.156-.313-.387.139-.783.275-1.188.406-.135.057-.26.13-.375.219-.075-.022-.075-.053 0-.094a.306.306 0 0 0-.188-.031l-.125-.063-.125-.375c.034-.004.055-.025.063-.063a3.067 3.067 0 0 1-.281-1.125c.129.493.296.972.5 1.438.142.06.256.019.344-.125a4.29 4.29 0 0 1-.469-1.625l.063.188a.152.152 0 0 0 .031-.125z" style="fill:var(--color116, #b4b400)"/>
      <path fill="#bfbd04" d="M13.406 18.219c-.118.024-.212.107-.281.25-.126-.067-.157-.15-.094-.25a.152.152 0 0 0 .125-.031c-.076-.056-.076-.108 0-.156a.295.295 0 0 0 .25.188z" style="fill:var(--color117, #bfbd04)"/>
      <path fill="#73590f" d="M13.531 18.156a.964.964 0 0 1-.313.406l.156.156a.716.716 0 0 1 .469-.313l-.125.125a.708.708 0 0 1-.25.281.327.327 0 0 0 .25.156c.013.105-.028.167-.125.188a12.063 12.063 0 0 0-.719-.75.18.18 0 0 1-.156.063c.029-.175.133-.258.313-.25-.063.1-.032.183.094.25.07-.143.163-.226.281-.25l.125-.063z" style="fill:var(--color118, #73590f)"/>
      <path fill="#6e6806" d="M16.594 17.969a1.26 1.26 0 0 1-.063.313c.095.144.168.29.219.438a3.976 3.976 0 0 1-.406-.438.896.896 0 0 0 .25-.313z" style="fill:var(--color119, #6e6806)"/>
      <path fill="#ecec00" d="m7.094 18.281-.5.188a5.126 5.126 0 0 0-1.156.313c-.048-.004-.079-.025-.094-.063a6.776 6.776 0 0 1 1.75-.438z" style="fill:var(--color120, #ecec00)"/>
      <path fill="#f7f700" d="M7.156 18.406c.025.111.066.216.125.313a2.091 2.091 0 0 0-.625.188c.215-.018.423-.06.625-.125.052.021.073.063.063.125a5.228 5.228 0 0 0-1.438.375 1.13 1.13 0 0 0-.688.375c-.054.06-.096.06-.125 0 .264-.252.243-.294-.063-.125.005-.095-.037-.158-.125-.188a.294.294 0 0 0-.125-.25c.023-.043.043-.084.063-.125a.314.314 0 0 1 .188.031c-.075.041-.075.072 0 .094.115-.089.24-.162.375-.219.405-.131.801-.267 1.188-.406.189-.013.376-.034.563-.063z" style="fill:var(--color13, #f7f700)"/>
      <path fill="#d2d101" d="M13.531 18.156a.922.922 0 0 1 .313.25.713.713 0 0 0-.469.313l-.156-.156a.987.987 0 0 0 .313-.406z" style="fill:var(--color121, #d2d101)"/>
      <path fill="#f2f100" d="M12.719 18.531a.333.333 0 0 1 .25.156c-.149.061-.128.103.063.125a.354.354 0 0 0-.188.094c-.169-.011-.273-.094-.313-.25l.188-.125z" style="fill:var(--color122, #f2f100)"/>
      <path fill="#6a691e" d="M14.656 18.219a.435.435 0 0 0 .063.25.152.152 0 0 0-.125.031.434.434 0 0 1 .125.156.177.177 0 0 1-.156-.063.434.434 0 0 1-.156.125.437.437 0 0 1 .125-.25.365.365 0 0 1 .125-.25z" style="fill:var(--color123, #6a691e)"/>
      <path fill="#f7f700" d="M14.719 18.656c.185.197.393.363.625.5.07.102.154.196.25.281a6.817 6.817 0 0 0-.563.125c.229-.007.458-.007.688 0a5.008 5.008 0 0 1-1.688.219.433.433 0 0 0 .25-.063c.23-.018.46-.049.688-.094a2.584 2.584 0 0 0-.563-.063c.131.035.141.066.031.094a.897.897 0 0 0-.219-.063.364.364 0 0 0-.188-.063c-.069-.099-.027-.152.125-.156a.152.152 0 0 0-.125-.031c.157-.189.282-.398.375-.625a.434.434 0 0 0 .156-.125.18.18 0 0 0 .156.063z" style="fill:var(--color13, #f7f700)"/>
      <path fill="#aeae00" d="M14.719 18.469c.295.159.566.357.813.594L15.219 19a.434.434 0 0 1 .125.156 2.816 2.816 0 0 1-.625-.5.434.434 0 0 0-.125-.156.152.152 0 0 1 .125-.031z" style="fill:var(--color62, #aeae00)"/>
      <path fill="#918b04" d="M12.531 18.656c.039.156.143.239.313.25-.063.1-.032.183.094.25a.14.14 0 0 1 .094-.063c.011.169.094.273.25.313l-.094.188a16.568 16.568 0 0 1-.844-.875.197.197 0 0 1 .188-.063z" style="fill:var(--color124, #918b04)"/>
      <path fill="#877a09" d="M8.969 18.469c-.091.06-.175.133-.25.219.149.061.128.103-.063.125l.188.063c-.165.142-.144.256.063.344a1.59 1.59 0 0 1-.375.375.46.46 0 0 1-.125-.188c.093.005.156-.036.188-.125a1.01 1.01 0 0 0-.156-.313.434.434 0 0 1-.156.125c-.129.068-.171.037-.125-.094a.152.152 0 0 0-.125-.031c-.298-.102-.319-.248-.063-.438l-.125-.188a.805.805 0 0 0 .281-.25c.165.08.3.039.406-.125.135.185.281.352.438.5z" style="fill:var(--color125, #877a09)"/>
      <path fill="#b0ac02" d="M13.719 18.531c.047.1.11.194.188.281a.269.269 0 0 0-.188.156.333.333 0 0 1-.25-.156.714.714 0 0 0 .25-.281z" style="fill:var(--color126, #b0ac02)"/>
      <path fill="#e5e500" d="M8.969 18.469a.72.72 0 0 1 .25.25.434.434 0 0 0-.156.125c-.045-.059-.097-.07-.156-.031a.776.776 0 0 0 .063.344c-.042 0-.063.021-.063.063-.206-.088-.227-.202-.063-.344l-.188-.063c.19-.022.211-.064.063-.125.075-.086.159-.159.25-.219z" style="fill:var(--color127, #e5e500)"/>
      <path fill="#f7f700" d="M12.844 18.906h.188v.188a.14.14 0 0 0-.094.063c-.126-.067-.157-.15-.094-.25z" style="fill:var(--color13, #f7f700)"/>
      <path fill="#8e8903" d="M13.594 19.156c-.021.052-.063.073-.125.063a1.229 1.229 0 0 0-.219-.25l-.063.125-.063-.25a.542.542 0 0 1-.094.25v-.188h-.188a.35.35 0 0 1 .188-.094c-.19-.022-.211-.064-.063-.125a.327.327 0 0 0-.25-.156v-.063a.177.177 0 0 0 .156-.063c.252.242.492.492.719.75z" style="fill:var(--color128, #8e8903)"/>
      <path fill="#3b450a" d="m4.719 18.906.125.063c-.019.041-.04.082-.063.125a.294.294 0 0 1 .125.25c-.162-.096-.224-.242-.188-.438z" style="fill:var(--color129, #3b450a)"/>
      <path fill="#329d53" d="M7.344 18.906a.403.403 0 0 1 .313.313c.107.202.253.379.438.531a7.175 7.175 0 0 0-.5-.031 5.773 5.773 0 0 1-1.438-.25.439.439 0 0 1-.25-.188 5.21 5.21 0 0 1 1.438-.375z" style="fill:var(--color130, #329d53)"/>
      <path fill="#5b4807" d="M8.031 18.969a.152.152 0 0 1 .125.031c-.046.131-.004.162.125.094v.125c-.188.021-.271-.063-.25-.25z" style="fill:var(--color131, #5b4807)"/>
      <path fill="#8c8305" d="M9.219 18.719c.095.001.127.043.094.125a2.47 2.47 0 0 1-.344.313.776.776 0 0 1-.063-.344c.059-.039.111-.028.156.031a.434.434 0 0 1 .156-.125z" style="fill:var(--color132, #8c8305)"/>
      <path fill="#edeb01" d="M13.469 19.219a.636.636 0 0 0-.188.188c-.156-.039-.239-.143-.25-.313a.553.553 0 0 0 .094-.25l.063.25.063-.125c.086.075.159.159.219.25z" style="fill:var(--color133, #edeb01)"/>
      <path fill="#f5f400" d="m8.406 19.406-.125-.188v-.125a.434.434 0 0 0 .156-.125c.07.094.122.198.156.313-.032.089-.094.13-.188.125z" style="fill:var(--color134, #f5f400)"/>
      <path fill="#40623d" d="M7.656 19.219c.229.188.438.396.625.625a1.714 1.714 0 0 1-.688-.125c.172.005.339.015.5.031a1.763 1.763 0 0 1-.438-.531z" style="fill:var(--color135, #40623d)"/>
      <path fill="#717505" d="M5.906 19.281a.443.443 0 0 0 .25.188c-.081-.015-.143.006-.188.063a20.29 20.29 0 0 1-.188-.125c-.038.008-.059.029-.063.063a.42.42 0 0 0-.375.188h-.125c.181-.205.41-.33.688-.375z" style="fill:var(--color136, #717505)"/>
      <path fill="#fbfb00" d="M5.719 19.469c1.112 1.607 2.654 2.524 4.625 2.75.113.089.155.214.125.375a45.088 45.088 0 0 1-1.5-.25 1.893 1.893 0 0 0-.688-.219l.25.125a.057.057 0 0 1-.063.031 4.1 4.1 0 0 1-.875-.375c.004-.034.025-.055.063-.063a.802.802 0 0 0 .5.156 7.324 7.324 0 0 1-2.813-2.344.423.423 0 0 1 .375-.188z" style="fill:var(--color12, #fbfb00)"/>
      <path fill="#c34930" d="M14.031 19.531a.358.358 0 0 1 .188.063l.063.125a.433.433 0 0 1-.25.063h-.25a.152.152 0 0 1-.125-.031.433.433 0 0 1 .375-.219z" style="fill:var(--color137, #c34930)"/>
      <path fill="#4c560d" d="m5.219 19.656.125.313c-.225-.06-.33-.206-.313-.438.306-.169.327-.127.063.125.029.06.071.06.125 0z" style="fill:var(--color138, #4c560d)"/>
      <path fill="#6d452c" d="M14.031 19.344a.152.152 0 0 1 .125.031c-.152.005-.194.057-.125.156a.431.431 0 0 0-.375.219.152.152 0 0 0 .125.031v.063h-.313c.15-.213.338-.379.563-.5z" style="fill:var(--color139, #6d452c)"/>
      <path fill="#696404" d="m14.281 19.719-.063-.125a.855.855 0 0 1 .219.063c.11-.028.1-.059-.031-.094.186 0 .374.02.563.063a5.923 5.923 0 0 1-.688.094z" style="fill:var(--color140, #696404)"/>
      <path fill="#f4f400" d="M5.969 19.531c.044-.056.107-.077.188-.063.467.144.946.227 1.438.25.213.088.442.129.688.125 0 .042.021.063.063.063-.004.034-.025.055-.063.063a3.191 3.191 0 0 0-.938-.094c.392.084.788.136 1.188.156.166.188.375.313.625.375a.297.297 0 0 1-.188.063c-.479-.08-.958-.132-1.438-.156.617.14 1.242.213 1.875.219.044.056.107.077.188.063a1.954 1.954 0 0 1-.688.063 91.734 91.734 0 0 1-1.813-.313c.112-.051.237-.082.375-.094a14.844 14.844 0 0 1-.938-.219 1.106 1.106 0 0 1-.375-.25c.005-.078.046-.13.125-.156a1.717 1.717 0 0 1-.313-.094z" style="fill:var(--color104, #f4f400)"/>
      <path fill="#fbfb00" d="M12.594 20.469c.198-.11.386-.235.563-.375.144-.035.29-.066.438-.094a.354.354 0 0 1-.188-.094c.042 0 .063-.021.063-.063h.313a.314.314 0 0 1 .188.031c-.299.044-.309.075-.031.094.496-.048.985-.132 1.469-.25l.125.063a.933.933 0 0 1-.188.219c-.898.257-1.815.414-2.75.469z" style="fill:var(--color12, #fbfb00)"/>
      <path fill="#818107" d="M8.344 19.906a.448.448 0 0 1 .188.125c-.4-.02-.795-.072-1.188-.156.316-.015.629.016.938.094.038-.008.059-.029.063-.063z" style="fill:var(--color141, #818107)"/>
      <path fill="#cdc9c4" d="M7.094 17.781c.415 1.373 1.311 2.269 2.688 2.688.17.088.357.13.563.125a7.759 7.759 0 0 0 1.625-.125c.1-.017.183.004.25.063-.13.029-.255.071-.375.125a1.701 1.701 0 0 0-.563.125H10.405a5.1 5.1 0 0 0-1-.25.365.365 0 0 0-.25-.125 1.199 1.199 0 0 1-.625-.375.442.442 0 0 0-.188-.125c-.042 0-.063-.021-.063-.063a4.448 4.448 0 0 0-.625-.625.403.403 0 0 0-.313-.313c.011-.062-.01-.104-.063-.125v-.063a1.027 1.027 0 0 1-.125-.313c.011-.062-.01-.104-.063-.125a.676.676 0 0 0-.125-.375.532.532 0 0 1 .031-.25.206.206 0 0 0 .094.125z" style="fill:var(--color142, #cdc9c4)"/>
      <path fill="#beb4ab" d="M14.406 18.344a.188.188 0 0 0 .125.125.437.437 0 0 0-.125.25 2.393 2.393 0 0 1-.375.625 1.625 1.625 0 0 0-.563.5c0 .042-.021.063-.063.063a.296.296 0 0 0-.25.188c-.177.14-.364.265-.563.375a.745.745 0 0 0-.375.063.292.292 0 0 0-.25-.063 4.376 4.376 0 0 0 2.438-2.125z" style="fill:var(--color143, #beb4ab)"/>
      <path fill="#2da256" d="M7.094 20.344c.605.11 1.209.214 1.813.313.3.062.613.083.938.063.183.05.371.071.563.063h.063v1.188H9.595a7.001 7.001 0 0 1-3.063-1.719c.187.01.374.041.563.094z" style="fill:var(--color144, #2da256)"/>
      <path fill="#838307" d="M9.156 20.406c.103.01.187.052.25.125a8.763 8.763 0 0 1-1.875-.219c.48.024.959.076 1.438.156a.288.288 0 0 0 .188-.063z" style="fill:var(--color145, #838307)"/>
      <path fill="#7b4818" d="M15.156 20.219h.063l-.188.25h-.125a.603.603 0 0 0-.375-.063l.625-.188z" style="fill:var(--color146, #7b4818)"/>
      <path fill="#c4c400" d="M5.219 19.656h.125A7.316 7.316 0 0 0 8.157 22a.808.808 0 0 1-.5-.156c-.038.008-.059.029-.063.063a11.543 11.543 0 0 1-1.188-.813 7.43 7.43 0 0 0-.813-.813.472.472 0 0 0-.25-.313l-.125-.313z" style="fill:var(--color8, #c4c400)"/>
      <path fill="#f4f400" d="M15.156 20.219c-.214.063-.422.126-.625.188a3.54 3.54 0 0 0-.75.125 5.57 5.57 0 0 0-.875.125h-.125c-.209.01-.418 0-.625-.031.98-.087 1.949-.244 2.906-.469.048.004.079.025.094.063z" style="fill:var(--color104, #f4f400)"/>
      <path fill="#da4b38" d="M14.531 20.406a.597.597 0 0 1 .375.063.72.72 0 0 1-.25.25c-.095-.005-.158.037-.188.125-.095-.005-.158.037-.188.125s-.092.13-.188.125c-.095-.005-.158.037-.188.125-.188.136-.397.24-.625.313a.378.378 0 0 0-.313.125 3.472 3.472 0 0 1-1.25.313h-.438v-1.188c.242.02.471-.001.688-.063.283.02.554-.001.813-.063h.125c.23.01.459 0 .688-.031a.354.354 0 0 0 .188-.094 3.54 3.54 0 0 1 .75-.125z" style="fill:var(--color147, #da4b38)"/>
      <path fill="#8e8b05" d="M15.344 19.156a2.5 2.5 0 0 1 .625.531l-.531.531-.063-.125a.434.434 0 0 1-.156.125h-.063c-.015-.037-.046-.058-.094-.063-.957.225-1.926.381-2.906.469.207.031.416.042.625.031a2.693 2.693 0 0 1-.813.063c-.062.011-.104-.01-.125-.063.12-.054.245-.096.375-.125a.756.756 0 0 1 .375-.063 12.611 12.611 0 0 0 2.75-.469.957.957 0 0 0 .188-.219l-.125-.063a10.41 10.41 0 0 1-1.469.25c-.278-.019-.268-.05.031-.094a.306.306 0 0 0-.188-.031v-.063h.25a5.011 5.011 0 0 0 1.688-.219c-.23-.007-.459-.007-.688 0 .186-.05.373-.091.563-.125a1.574 1.574 0 0 1-.25-.281z" style="fill:var(--color148, #8e8b05)"/>
      <path fill="#814841" d="M9.781 20.469c.205-.005.393.037.563.125a1.145 1.145 0 0 1-.563-.125z" style="fill:var(--color149, #814841)"/>
      <path fill="#8e4c1d" d="M13.781 20.531a.35.35 0 0 1-.188.094c-.228.031-.457.042-.688.031a5.57 5.57 0 0 1 .875-.125z" style="fill:var(--color150, #8e4c1d)"/>
      <path fill="#ebeb00" d="m16.219 20.031-.188.375-.688.625c-.027.004-.048-.006-.063-.031a4.03 4.03 0 0 0 .688-.781l.25-.188z" style="fill:var(--color151, #ebeb00)"/>
      <path fill="#526817" d="M9.594 20.594a.915.915 0 0 1 .25.125 3.546 3.546 0 0 1-.938-.063c.242.02.471-.001.688-.063z" style="fill:var(--color152, #526817)"/>
      <path fill="#4a503b" d="M9.406 20.531a5.1 5.1 0 0 1 1 .25 1.839 1.839 0 0 1-.563-.063.915.915 0 0 0-.25-.125c-.081.015-.143-.006-.188-.063z" style="fill:var(--color153, #4a503b)"/>
      <path fill="#4f3b1c" d="M11.844 20.656c.021.052.063.073.125.063a1.954 1.954 0 0 1-.688.063c.173-.072.361-.114.563-.125z" style="fill:var(--color154, #4f3b1c)"/>
      <path fill="#c1c100" d="M5.969 19.531a.296.296 0 0 0 .188.25.82.82 0 0 0 .281.375.272.272 0 0 0 .094-.125c.309.082.622.155.938.219a1.136 1.136 0 0 0-.375.094 2.64 2.64 0 0 0-.563-.094 7.02 7.02 0 0 0 3.063 1.719c.201.086.451.148.75.188v.063c-1.971-.226-3.513-1.143-4.625-2.75.004-.034.025-.055.063-.063.064.043.126.085.188.125z" style="fill:var(--color155, #c1c100)"/>
      <path fill="#726c08" d="M14.656 20.719c-.03.088-.092.13-.188.125.03-.088.092-.13.188-.125z" style="fill:var(--color156, #726c08)"/>
      <path fill="#3a4d10" d="M10.469 20.781h.063c-.04.712.001 1.399.125 2.063-.015.037-.046.058-.094.063a2.689 2.689 0 0 0-.594-.188c.18.019.347-.002.5-.063v-.063c.03-.161-.012-.286-.125-.375v-.063c.055.008.096-.013.125-.063a30.075 30.075 0 0 1-.563-.125h.563v-1.188z" style="fill:var(--color157, #3a4d10)"/>
      <path fill="#c4c400" d="M10.531 20.781h.063c.021.052.063.073.125.063v1.938c-.042 0-.063.021-.063.063a8.573 8.573 0 0 1-.125-2.063z" style="fill:var(--color8, #c4c400)"/>
      <path fill="#feff00" d="M10.719 20.844h.313v1.938h-.313v-1.938z" style="fill:var(--color9, #feff00)"/>
      <path fill="#818102" d="M10.594 20.781h.625v.063a7.611 7.611 0 0 0-.125 1.938h-.063v-1.938h-.313c-.062.011-.104-.01-.125-.063z" style="fill:var(--color158, #818102)"/>
      <path fill="#e0e000" d="M11.219 20.844v1.876c-.013.12-.055.141-.125.063-.04-.67.002-1.316.125-1.938z" style="fill:var(--color79, #e0e000)"/>
      <path fill="#643512" d="M11.219 20.781h.063v1.188h.438a.809.809 0 0 1-.438.063h-.063v-1.251z" style="fill:var(--color159, #643512)"/>
      <path fill="#594c08" d="M14.469 20.844c-.03.088-.092.13-.188.125.03-.088.092-.13.188-.125z" style="fill:var(--color160, #594c08)"/>
      <path fill="#c8c800" d="M14.906 20.469h.125a.152.152 0 0 1 .125.031 5.21 5.21 0 0 1-2.438 1.406c-.406.069-.802.152-1.188.25-.124.021-.207-.02-.25-.125a.8.8 0 0 0 .438-.063 3.431 3.431 0 0 0 1.25-.313.378.378 0 0 0 .313-.125c.228-.072.437-.177.625-.313.095.005.158-.037.188-.125.095.005.158-.037.188-.125.095.005.158-.037.188-.125.095.005.158-.037.188-.125a.72.72 0 0 0 .25-.25z" style="fill:var(--color161, #c8c800)"/>
      <path fill="#585008" d="M14.094 21.094c-.03.088-.092.13-.188.125.03-.088.092-.13.188-.125z" style="fill:var(--color162, #585008)"/>
      <path fill="#4d4008" d="M13.281 21.531a.376.376 0 0 1-.313.125.376.376 0 0 1 .313-.125z" style="fill:var(--color163, #4d4008)"/>
      <path fill="#f3f300" d="M9.594 21.969h.313c.179.042.366.083.563.125-.029.05-.07.071-.125.063a2.865 2.865 0 0 1-.75-.188z" style="fill:var(--color164, #f3f300)"/>
      <path fill="#848400" d="M12.719 21.906a3.035 3.035 0 0 1-1.188.25c.385-.098.781-.181 1.188-.25z" style="fill:var(--color77, #848400)"/>
      <path fill="#b9b900" d="M15.969 20.219a3.996 3.996 0 0 1-.688.781.057.057 0 0 0 .063.031 6.708 6.708 0 0 1-3.25 1.625.35.35 0 0 1 .188-.094l-.313-.063a7.199 7.199 0 0 0 4-2.281z" style="fill:var(--color165, #b9b900)"/>
      <path fill="#a7a700" d="M8.969 22.344a.286.286 0 0 0-.25.063.915.915 0 0 1-.25-.125c.027.004.048-.006.063-.031l-.25-.125c.243.029.473.102.688.219z" style="fill:var(--color166, #a7a700)"/>
      <path fill="#8c8c00" d="M8.969 22.344c.499.092.999.175 1.5.25v.063a4.817 4.817 0 0 1-1.5-.313z" style="fill:var(--color167, #8c8c00)"/>
      <path fill="#e9e900" d="M8.719 22.406a.292.292 0 0 1 .25-.063c.476.183.976.287 1.5.313-.153.061-.32.082-.5.063a16.664 16.664 0 0 1-1.25-.313z" style="fill:var(--color168, #e9e900)"/>
      <path fill="#880" d="M11.219 22.031h.063c.043.105.126.146.25.125a.292.292 0 0 1-.25.063v.313c.209-.01.418 0 .625.031a1.514 1.514 0 0 0-.625.156h-.063v-.688z" style="fill:var(--color169, #880)"/>
      <path fill="#70572d" d="M12.031 22.656c-.285.079-.577.163-.875.25a1.2 1.2 0 0 0-.375-.063v7.25c-.042 0-.063-.021-.063-.063.021-2.407 0-4.802-.063-7.188 0-.042.021-.063.063-.063h.376c.07.079.112.058.125-.063h.063c.251-.009.501-.03.75-.063z" style="fill:var(--color170, #70572d)"/>
    </symbol>
    <symbol id="icon-jp" viewBox="0 0 32 32">
      <path fill="#f0efef" d="M14.531-.031h2.875c5.603.68 9.822 3.451 12.656 8.313a16.932 16.932 0 0 1 1.906 6.25v2.875c-.68 5.603-3.451 9.822-8.313 12.656a16.932 16.932 0 0 1-6.25 1.906H14.53c-5.603-.68-9.822-3.451-12.656-8.313a16.932 16.932 0 0 1-1.906-6.25v-2.875C.648 8.928 3.419 4.71 8.281 1.875a16.932 16.932 0 0 1 6.25-1.906z" opacity=".996" style="fill:var(--color171, #f0efef)"/>
      <path fill="#d80127" d="M14.969 9.031c3.043-.244 5.387.902 7.031 3.438 1.093 2.073 1.198 4.198.313 6.375-1.711 3.194-4.367 4.496-7.969 3.906-3.405-1.041-5.176-3.343-5.313-6.906.183-3.064 1.683-5.2 4.5-6.406.479-.166.958-.302 1.438-.406z" style="fill:var(--color172, #d80127)"/>
    </symbol>
    <symbol id="icon-pl" viewBox="0 0 32 32">
      <path fill="#f0f0f0" d="M14.531-.031h2.875c5.603.68 9.822 3.451 12.656 8.313a16.932 16.932 0 0 1 1.906 6.25v1.438h-32v-1.438C.648 8.929 3.419 4.71 8.281 1.876a16.932 16.932 0 0 1 6.25-1.906z" opacity=".997" style="fill:var(--color173, #f0f0f0)"/>
      <path fill="#d80127" d="M-.031 15.969h32v1.438c-.775 6.04-3.879 10.425-9.313 13.156a17.268 17.268 0 0 1-5.313 1.406h-2.75c-6.269-.78-10.738-4.03-13.406-9.75a17.78 17.78 0 0 1-1.219-4.813v-1.438z" style="fill:var(--color172, #d80127)"/>
    </symbol>
    <symbol id="icon-sp" viewBox="0 0 32 32">
      <path fill="#e74c3b" d="M28.969 8.469h-26C4.556 5.653 6.826 3.581 9.782 2.25 13.131.825 16.568.575 20.095 1.5c3.293.994 5.971 2.859 8.031 5.594.298.451.58.91.844 1.375z" opacity=".997" style="fill:var(--color174, #e74c3b)"/>
      <path fill="#fbd015" d="M2.969 8.469h26c1.687 2.922 2.322 6.068 1.906 9.438a14.493 14.493 0 0 1-1.906 5.563h-26C1.348 20.693.692 17.693 1 14.47a13.995 13.995 0 0 1 1.969-6z" opacity=".998" style="fill:var(--color175, #fbd015)"/>
      <path fill="#3b576d" d="M12.844 11.094c.056.044.077.107.063.188-.081.015-.143-.006-.188-.063a.188.188 0 0 1 .125-.125z" style="fill:var(--color176, #3b576d)"/>
      <path fill="#0c56ab" d="M13.094 11.156c.042 0 .063.021.063.063-.004.034-.025.055-.063.063-.08-.047-.08-.089 0-.125z" style="fill:var(--color177, #0c56ab)"/>
      <path fill="#a51a17" d="M11.281 12.469c.098.09.181.194.25.313a.358.358 0 0 1-.063.188.343.343 0 0 0-.188.188c-.042 0-.063.021-.063.063-.061.125-.144.145-.25.063a.27.27 0 0 1-.219-.063c-.148.174-.232.153-.25-.063a1.71 1.71 0 0 1-.219-.125.574.574 0 0 0 .063-.313c.273-.209.585-.292.938-.25zM14.594 12.469c.341-.018.653.065.938.25a.569.569 0 0 0 .063.313 2.921 2.921 0 0 0-.188.125v.063l-.125.063c-.094-.062-.198-.062-.313 0-.106.083-.189.062-.25-.063a.376.376 0 0 0-.313-.125v-.063a.14.14 0 0 1 .063-.094.204.204 0 0 1-.125-.219l.25-.25z" style="fill:var(--color178, #a51a17)"/>
      <path fill="#968224" d="M13.094 11.156c-.08.036-.08.078 0 .125.038-.008.059-.029.063-.063.058.067.079.15.063.25a.205.205 0 0 1 .219.125.434.434 0 0 1 .094-.188c.063.083.125.083.188 0a.429.429 0 0 1 .094.188c.063-.167.125-.167.188 0 .228-.068.395.015.5.25.536-.18 1.005-.055 1.406.375a.283.283 0 0 1-.125.094c.081.031.164.041.25.031.05.361-.044.674-.281.938-.11-.028-.1-.059.031-.094a1.154 1.154 0 0 0-.375-.031c.056-.041.119-.083.188-.125a.574.574 0 0 1-.063-.313c.16-.317.056-.536-.313-.656.075-.041.075-.072 0-.094a4.207 4.207 0 0 1-.625.094c.026.13.026.266 0 .406l-.25.25h-.063a.592.592 0 0 1-.125-.156.434.434 0 0 0 .125-.156c.066-.456-.143-.685-.625-.688a6.412 6.412 0 0 0-.438.063.553.553 0 0 0 .125.438 3.576 3.576 0 0 1-.313.469l.125.063a.532.532 0 0 1-.281.219 27.907 27.907 0 0 1-.219-.75h-.188c.044-.056.107-.077.188-.063v-.375a1.116 1.116 0 0 0-.938.094.442.442 0 0 0-.063.531.314.314 0 0 1 0 .375h-.125a1.361 1.361 0 0 0-.25-.313v-.438c-.387-.068-.71.036-.969.313a.413.413 0 0 0 .031.375.569.569 0 0 1-.063.313c.07.048.143.089.219.125.018.216.102.237.25.063a.278.278 0 0 0 .219.063.434.434 0 0 1-.125.156 1.81 1.81 0 0 0-.438.031c-.51-.308-.656-.725-.438-1.25.118-.113.243-.217.375-.313a.283.283 0 0 1 .094.125c.031-.081.041-.164.031-.25a.348.348 0 0 1 .344.125c.036-.198.099-.219.188-.063.063-.167.125-.167.188 0 .063-.167.125-.167.188 0a.836.836 0 0 1 .594-.375.283.283 0 0 1 .094.125.434.434 0 0 1 .094-.188c.063.083.125.083.188 0a.429.429 0 0 1 .094.188.204.204 0 0 1 .219-.125.286.286 0 0 1 .063-.25c.044.056.107.077.188.063.015-.081-.006-.143-.063-.188a.627.627 0 0 0-.125-.219c.146-.292.292-.292.438 0-.118.082-.139.176-.063.281z" style="fill:var(--color179, #968224)"/>
      <path fill="#f4c915" d="M15.531 12.719a1.53 1.53 0 0 0-.938-.25c.026-.14.026-.276 0-.406a4.08 4.08 0 0 0 .625-.094c.075.022.075.053 0 .094.368.12.473.339.313.656z" style="fill:var(--color180, #f4c915)"/>
      <path fill="#f7cc15" d="M11.281 12.469a1.244 1.244 0 0 0-.938.25.41.41 0 0 1-.031-.375c.259-.277.582-.381.969-.313v.438z" style="fill:var(--color181, #f7cc15)"/>
      <path fill="#968d61" d="M12.906 11.719c.22.292.21.583-.031.875a.363.363 0 0 0-.031-.25.562.562 0 0 1 .188-.344.267.267 0 0 1-.125-.281z" style="fill:var(--color182, #968d61)"/>
      <path fill="#f7cc15" d="M14.281 12.406c-.316-.05-.629-.113-.938-.188a.55.55 0 0 1-.125-.438c.144-.026.29-.047.438-.063.482.002.691.231.625.688z" style="fill:var(--color181, #f7cc15)"/>
      <path fill="#fbd015" d="M12.469 12.219c-.28.024-.551.086-.813.188a.442.442 0 0 1 .063-.531c.298-.17.61-.201.938-.094v.375c-.081-.015-.143.006-.188.063z" style="fill:var(--color175, #fbd015)"/>
      <path fill="#22507f" d="M12.719 11.469a.547.547 0 0 1 .438-.031c-.138.113-.284.123-.438.031z" style="fill:var(--color183, #22507f)"/>
      <path fill="#bea800" d="M11.531 12.781h.125a.3.3 0 0 1 .125.25.27.27 0 0 0-.219.063.206.206 0 0 0-.094-.125.364.364 0 0 0 .063-.188z" style="fill:var(--color184, #bea800)"/>
      <path fill="#baa300" d="M14.281 12.719h.063a.205.205 0 0 0 .125.219.14.14 0 0 0-.063.094h-.25a.433.433 0 0 1 .063-.25c.042 0 .063-.021.063-.063z" style="fill:var(--color185, #baa300)"/>
      <path fill="#b09801" d="M12.156 13.094a.423.423 0 0 1-.375.188.27.27 0 0 1 .063-.219c.1.001.205.012.313.031z" style="fill:var(--color186, #b09801)"/>
      <path fill="#b09901" d="M13.906 13.031h.188v.25a.302.302 0 0 1-.313-.156.272.272 0 0 1 .125-.094z" style="fill:var(--color187, #b09901)"/>
      <path fill="#b9a100" d="M11.219 13.219c0-.042.021-.063.063-.063.181-.091.265-.028.25.188a.378.378 0 0 1-.313-.125z" style="fill:var(--color188, #b9a100)"/>
      <path fill="#baa400" d="M14.406 13.094a.377.377 0 0 1 .313.125c-.121.114-.246.125-.375.031a.18.18 0 0 0 .063-.156z" style="fill:var(--color189, #baa400)"/>
      <path fill="#9d2117" d="M12.469 12.219h.188c.073.263.146.513.219.75a.532.532 0 0 0 .281-.219l-.125-.063a3.61 3.61 0 0 0 .313-.469c.309.075.621.137.938.188a.434.434 0 0 1-.125.156.592.592 0 0 0 .125.156c0 .042-.021.063-.063.063-.097.02-.138.083-.125.188-.081-.015-.143.006-.188.063a.272.272 0 0 0-.125.094c.07.118.174.17.313.156v.188c-.312.148-.478.043-.5-.313-.048.291-.214.384-.5.281-.083-.292-.167-.292-.25 0a.634.634 0 0 1-.375.094.186.186 0 0 0-.125-.125.55.55 0 0 1-.438.125.188.188 0 0 1-.125-.125v-.125a.42.42 0 0 0 .375-.188.376.376 0 0 0-.313-.125v-.188h-.188a.314.314 0 0 0 0-.375 2.95 2.95 0 0 1 .813-.188z" style="fill:var(--color190, #9d2117)"/>
      <path fill="#bba500" d="M13.219 12.906c.099.055.203.107.313.156a.4.4 0 0 1-.375.125c-.078-.114-.057-.207.063-.281z" style="fill:var(--color191, #bba500)"/>
      <path fill="#bfa900" d="M12.594 12.906c.212.076.233.18.063.313a.764.764 0 0 1-.25-.156.269.269 0 0 0 .188-.156z" style="fill:var(--color192, #bfa900)"/>
      <path fill="#852d12" d="M11.656 12.781h.188v.188a.378.378 0 0 1 .313.125 1.813 1.813 0 0 0-.313-.031.278.278 0 0 0-.063.219v.125a.14.14 0 0 1-.094-.063c-.048.256-.205.371-.469.344.402.04.392.092-.031.156l-.094-.031c.085-.172.043-.203-.125-.094a.565.565 0 0 1-.344-.188.057.057 0 0 0-.031.063c-.095.005-.158-.037-.188-.125a1.81 1.81 0 0 1 .438-.031.434.434 0 0 0 .125-.156c.106.083.189.062.25-.063.08.089.184.131.313.125.015-.216-.069-.278-.25-.188.037-.088.1-.15.188-.188a.21.21 0 0 1 .094.125.278.278 0 0 1 .219-.063.3.3 0 0 0-.125-.25z" style="fill:var(--color193, #852d12)"/>
      <path fill="#873215" d="M14.219 12.781a.433.433 0 0 0-.063.25h.25v.063a.177.177 0 0 1-.063.156c.129.093.254.083.375-.031.061.125.144.145.25.063.075.175.2.217.375.125-.023-.043-.043-.084-.063-.125l.125-.063a.294.294 0 0 0 .125.25c-.032.089-.094.13-.188.125a.816.816 0 0 0-.375.125.434.434 0 0 1-.25-.125c-.265.112-.443.029-.531-.25a.206.206 0 0 1-.094.125v-.438h-.188c.044-.056.107-.077.188-.063-.013-.105.028-.167.125-.188z" style="fill:var(--color194, #873215)"/>
      <path fill="#b79e01" d="M15.281 13.281c.019.041.04.082.063.125-.175.092-.3.05-.375-.125.115-.062.219-.062.313 0z" style="fill:var(--color195, #b79e01)"/>
      <path fill="#9b7b15" d="M14.094 13.469a.21.21 0 0 0 .094-.125c.089.279.266.362.531.25a.434.434 0 0 0 .25.125.816.816 0 0 1 .375-.125c-.213.163-.401.35-.563.563-.239-.061-.239-.113 0-.156l-.125-.063a.347.347 0 0 0 .188-.094.14.14 0 0 0-.063-.094l-.938-.063c.152-.068.131-.099-.063-.094a.5.5 0 0 0-.469 0 .804.804 0 0 1-.344-.125c-.165.121-.332.142-.5.063a.627.627 0 0 0 .375-.094c.083-.292.167-.292.25 0 .286.103.452.009.5-.281.022.356.188.46.5.313z" style="fill:var(--color196, #9b7b15)"/>
      <path fill="#6a3808" d="M13.781 13.594a7.101 7.101 0 0 1-1.625.031.556.556 0 0 1 .313-.094c.168.08.335.059.5-.063.105.068.22.11.344.125a.5.5 0 0 1 .469 0z" style="fill:var(--color197, #6a3808)"/>
      <path fill="#7b6d12" d="M12.469 13.531a.55.55 0 0 0-.313.094 7.101 7.101 0 0 0 1.625-.031c.194-.005.214.026.063.094l.938.063a.14.14 0 0 1 .063.094c-.271-.01-.5-.01-.688 0-.031.091-.114.153-.25.188-.186.023-.248-.039-.188-.188a.877.877 0 0 0-.563-.031.233.233 0 0 1 .063.094 1.065 1.065 0 0 1-.5.063v-.188a2.59 2.59 0 0 0-.563.031c.083.063.083.125 0 .188-.102.031-.206.041-.313.031v-.188a.314.314 0 0 1-.188-.031c.479-.051.458-.092-.063-.125l.156-.156c.061.08.113.08.156 0a.552.552 0 0 0 .438-.125.186.186 0 0 1 .125.125z" style="fill:var(--color198, #7b6d12)"/>
      <path fill="#b5a012" d="M11.781 13.406a.188.188 0 0 0 .125.125c-.043.08-.095.08-.156 0l-.156.156c.521.033.542.074.063.125.059.03.122.041.188.031v.188c.106.01.21 0 .313-.031.083-.063.083-.125 0-.188.186-.031.374-.042.563-.031v.188c.172.02.338-.001.5-.063a.223.223 0 0 0-.063-.094.884.884 0 0 1 .563.031c-.061.148.002.211.188.188.136-.034.219-.097.25-.188.188-.01.417-.01.688 0a.35.35 0 0 1-.188.094l.125.063c-.239.043-.239.095 0 .156 0 .042-.021.063-.063.063l-.5.063h-.063a1.136 1.136 0 0 0-.375-.094l.313-.063c-.582.017-1.165.028-1.75.031.385-.052.78-.083 1.188-.094a7.058 7.058 0 0 0-2.188.156c-.145-.019-.145-.071 0-.156-.081-.031-.164-.041-.25-.031a3.175 3.175 0 0 0-.438-.281.18.18 0 0 1-.063-.156c-.004-.027.006-.048.031-.063a.567.567 0 0 0 .344.188c.168-.11.21-.078.125.094l.094.031c.423-.064.434-.116.031-.156.264.027.42-.087.469-.344a.14.14 0 0 0 .094.063z" style="fill:var(--color199, #b5a012)"/>
      <path fill="#967e0a" d="M17.781 14.281c-.079-.132-.204-.194-.375-.188a8.782 8.782 0 0 1-.75.031c-.078.026-.12.078-.125.156-.081-.103-.06-.197.063-.281.208-.026.396-.099.563-.219.167.12.354.193.563.219.123.084.144.178.063.281z" style="fill:var(--color200, #967e0a)"/>
      <path fill="#992b14" d="M8.281 14.031c.278.274.237.357-.125.25-.092-.138-.051-.221.125-.25z" style="fill:var(--color201, #992b14)"/>
      <path fill="#962714" d="M9.219 14.031c.062-.011.104.01.125.063.003.131-.059.214-.188.25-.087-.13-.066-.234.063-.313z" style="fill:var(--color202, #962714)"/>
      <path fill="#856f07" d="M11.094 14.031a.532.532 0 0 1 .25.031c-.145.085-.145.138 0 .156a7.058 7.058 0 0 1 2.188-.156c-.407.011-.803.042-1.188.094a4.162 4.162 0 0 0-1 .219c.453.102.911.154 1.375.156a8.695 8.695 0 0 0 1.625-.156.206.206 0 0 1-.125-.094l.5-.063c.077.205-.006.299-.25.281.449.011.886.042 1.313.094h-5.626c.405-.052.822-.083 1.25-.094a.712.712 0 0 1-.219-.094l-.094-.375z" style="fill:var(--color203, #856f07)"/>
      <path fill="#9f1317" d="M14.156 14.281h.063a.21.21 0 0 0 .125.094 8.53 8.53 0 0 1-1.625.156.436.436 0 0 0-.313-.063v-.25a18.24 18.24 0 0 1 1.75.063z" style="fill:var(--color204, #9f1317)"/>
      <path fill="#4d1a0a" d="M14.156 14.281a18.57 18.57 0 0 0-1.75-.063v.25a.426.426 0 0 1 .313.063 6.364 6.364 0 0 1-1.375-.156 4.21 4.21 0 0 1 1-.219 78.245 78.245 0 0 0 1.75-.031l-.313.063c.138.012.263.043.375.094z" style="fill:var(--color205, #4d1a0a)"/>
      <path fill="#6b5106" d="M9.219 14.031c-.129.078-.15.182-.063.313.128-.036.191-.119.188-.25.069.069.079.152.031.25a.435.435 0 0 0-.219.25v.063h-1c.056-.041.119-.083.188-.125l-.188-.25c.362.107.403.024.125-.25a.808.808 0 0 0 .5-.313.305.305 0 0 1 .063.25.597.597 0 0 1 .375.063z" style="fill:var(--color206, #6b5106)"/>
      <path fill="#674409" d="M17.781 14.281a.753.753 0 0 0-.188.25c-.136-.063-.157-.021-.063.125h-.688c.023-.156-.019-.197-.125-.125l-.188-.25c.005-.078.047-.13.125-.156.255 0 .505-.01.75-.031.171-.007.296.056.375.188z" style="fill:var(--color207, #674409)"/>
      <path fill="#69450b" d="M10.156 14.594v3.063h-.063v-.688a1.48 1.48 0 0 0-.063-.563l.125-1.813z" style="fill:var(--color208, #69450b)"/>
      <path fill="#aa1418" d="M10.156 14.594h2.75v2.063a.588.588 0 0 0-.438.188h-.313a6.98 6.98 0 0 1 .125-1.25.193.193 0 0 1-.188-.063.433.433 0 0 0 .063-.25.603.603 0 0 0-.375-.063v-.313a.8.8 0 0 0-.438.063v.188a.819.819 0 0 1-.438.063c-.017.1.004.183.063.25.034.004.055.025.063.063a.197.197 0 0 1-.188.063c.035.281.077.562.125.844 0 .148-.021.283-.063.406h-.188v.5c.459-.01.917 0 1.375.031a.406.406 0 0 0-.063.281h-1.875v-3.063z" style="fill:var(--color209, #aa1418)"/>
      <path fill="#938b7a" d="M12.969 14.594h2.813c.062.593.083 1.197.063 1.813h-.063v-1.75h-2.75v2a17.192 17.192 0 0 1-.063-2.063z" style="fill:var(--color210, #938b7a)"/>
      <path fill="#c5c5c5" d="M15.781 16.406v1.313h-1.875c-.018-.581-.31-.935-.875-1.063v-2h2.75v1.75z" style="fill:var(--color211, #c5c5c5)"/>
      <path fill="#72692f" d="M14.844 15.219a1.196 1.196 0 0 0-.313-.188c-.093-.287-.01-.329.25-.125.095.084.178.178.25.281a.306.306 0 0 1-.188.031z" style="fill:var(--color212, #72692f)"/>
      <path fill="#8c7a02" d="M16.844 14.656h-.25v.25c.37-.019.735.002 1.094.063.031-.102.041-.206.031-.313h-.188c-.094-.146-.074-.188.063-.125.228.057.301.202.219.438a.617.617 0 0 1-.156.094 3.984 3.984 0 0 1-1 0c-.175-.082-.227-.217-.156-.406.081-.037.154-.078.219-.125.106-.072.148-.031.125.125z" style="fill:var(--color213, #8c7a02)"/>
      <path fill="#c5af00" d="M16.844 14.656H17.72a.81.81 0 0 1-.031.313 4.984 4.984 0 0 0-1.094-.063v-.25h.25z" style="fill:var(--color214, #c5af00)"/>
      <path fill="#7d6c01" d="M11.344 14.969c.125.042.24.042.344 0 .03.059.041.122.031.188h-.375v-.188z" style="fill:var(--color215, #7d6c01)"/>
      <path fill="#d86a9b" d="M14.531 15.031c.114.047.219.109.313.188v.375a2.458 2.458 0 0 1-.344.313c-.095.028-.168-.014-.219-.125a.223.223 0 0 0-.094.063.312.312 0 0 0-.156-.219c.081-.031.164-.041.25-.031.008-.106.05-.2.125-.281a.619.619 0 0 1-.125-.219l.25-.063z" style="fill:var(--color216, #d86a9b)"/>
      <path fill="#6b1e0d" d="M11.344 14.969a.819.819 0 0 1 .438-.063v.313a.597.597 0 0 1 .375.063.902.902 0 0 1-.344 0 .24.24 0 0 0 .031.25.197.197 0 0 1-.188.063v-.375h-.188v.375a.193.193 0 0 1-.188-.063.24.24 0 0 0 .031-.25.902.902 0 0 1-.344 0v.188a.292.292 0 0 1-.063-.25.8.8 0 0 0 .438-.063h.375a.314.314 0 0 0-.031-.188.484.484 0 0 1-.344 0z" style="fill:var(--color217, #6b1e0d)"/>
      <path fill="#8c7819" d="M9.156 14.656v-.063h.25a.546.546 0 0 1-.188.531l.125.125a4.432 4.432 0 0 0-.063 1.031c.1-.017.183.004.25.063h-.313v-1h-.875a2.33 2.33 0 0 0 .125 1.063c-.044.056-.107.077-.188.063a43.006 43.006 0 0 1 0-1.344c-.182-.129-.223-.286-.125-.469v.25h1.188v-.25h-.188z" style="fill:var(--color218, #8c7819)"/>
      <path fill="#c6af00" d="M8.156 14.656h1.188v.25H8.156v-.25z" style="fill:var(--color219, #c6af00)"/>
      <path fill="#87731b" d="M17.656 16.469c-.081.015-.143-.006-.188-.063.122-.327.164-.681.125-1.063h-.875v1h-.438a.603.603 0 0 1 .375-.063 4.428 4.428 0 0 0-.063-1.031c.186-.07.384-.102.594-.094l.531.063c-.06.413-.081.83-.063 1.25z" style="fill:var(--color220, #87731b)"/>
      <path fill="#c1c1c1" d="M9.219 16.344a2.507 2.507 0 0 0-.75.063 2.326 2.326 0 0 1-.125-1.063h.875v1z" style="fill:var(--color221, #c1c1c1)"/>
      <path fill="#bfbdbd" d="M17.469 16.406a7.845 7.845 0 0 1-.75-.063v-1h.875a2.33 2.33 0 0 1-.125 1.063z" style="fill:var(--color222, #bfbdbd)"/>
      <path fill="#98556f" d="M14.281 15.094a.627.627 0 0 0 .125.219.455.455 0 0 0-.125.281.532.532 0 0 0-.25.031.312.312 0 0 1 .156.219.233.233 0 0 1 .094-.063c.051.111.124.153.219.125.127-.096.241-.2.344-.313.067.047.078.109.031.188a.435.435 0 0 0-.219.25 3.97 3.97 0 0 0-.25-.063c-.101.051-.142.135-.125.25a.434.434 0 0 1-.156-.125.445.445 0 0 1-.406.125.193.193 0 0 1-.063.188 1.398 1.398 0 0 0-.25-.188c.158-.082.158-.155 0-.219.147-.021.293-.01.438.031.021-.188-.063-.271-.25-.25v-.25a.302.302 0 0 1-.25-.063c.083-.083.083-.167 0-.25.056-.068.118-.068.188 0a.45.45 0 0 0 .156-.125c.015.142.046.277.094.406.144.031.29.041.438.031v-.188a.308.308 0 0 1-.313-.156.24.24 0 0 1 .25.031c.043-.046.084-.088.125-.125z" style="fill:var(--color223, #98556f)"/>
      <path fill="#c0668d" d="M14.281 16.219c-.017-.115.024-.199.125-.25.085.018.168.039.25.063a.824.824 0 0 1 .125.313.373.373 0 0 0 .375-.125 1.354 1.354 0 0 1 .031-1.188c.063.083.125.083.188 0l.031.156c-.09.176-.173.354-.25.531.092.201.123.41.094.625a.828.828 0 0 1-.313.188c-.031.081-.041.164-.031.25h.188a2 2 0 0 1-.156.625c-.063-.083-.125-.083-.188 0a.385.385 0 0 0-.156-.281.491.491 0 0 1 .25-.125c-.198-.031-.313-.146-.344-.344a1.154 1.154 0 0 0-.031.375.552.552 0 0 0-.438.125.197.197 0 0 1-.063-.188c-.212-.008-.233-.071-.063-.188a.223.223 0 0 0-.063-.094.834.834 0 0 1 .375.063c-.107-.193-.066-.339.125-.438a.14.14 0 0 1-.063-.094z" style="fill:var(--color224, #c0668d)"/>
      <path fill="#685a04" d="M12.156 15.281a.425.425 0 0 1-.063.25.197.197 0 0 0 .188.063 6.98 6.98 0 0 0-.125 1.25h.313c-.13.13-.234.275-.313.438h-.438a.81.81 0 0 0-.031-.313c-.083-.083-.167-.083-.25 0-.031.102-.041.206-.031.313h-.625c-.01-.127 0-.252.031-.375.069.076.1.055.094-.063a1.31 1.31 0 0 0 .063-.406c-.048-.282-.09-.563-.125-.844a.193.193 0 0 0 .188-.063c-.008-.038-.029-.059-.063-.063v-.188a.902.902 0 0 0 .344 0 .24.24 0 0 1-.031.25.197.197 0 0 0 .188.063v-.375h.188v.375a.193.193 0 0 0 .188-.063.24.24 0 0 1-.031-.25.902.902 0 0 0 .344 0z" style="fill:var(--color225, #685a04)"/>
      <path fill="#2343da" d="M11.156 16.156a.177.177 0 0 1 .156.063c.031.102.041.206.031.313h-.25a.745.745 0 0 1 .063-.375z" style="fill:var(--color226, #2343da)"/>
      <path fill="#2243da" d="M11.844 16.156a.177.177 0 0 1 .156.063c.031.102.041.206.031.313h-.25a.745.745 0 0 1 .063-.375z" style="fill:var(--color227, #2243da)"/>
      <path fill="#a62817" d="M9.219 16.344h.313c.174-.014.34.007.5.063.056.181.077.368.063.563-.29-.05-.582-.091-.875-.125h-.438a1.66 1.66 0 0 1-.219-.375c-.06.18-.008.305.156.375-.095.051-.2.092-.313.125h-.125a3.304 3.304 0 0 0 0 .563h-.188a.425.425 0 0 1-.281-.188c-.274-.509-.118-.801.469-.875.081.015.143-.006.188-.063a2.54 2.54 0 0 1 .75-.063z" style="fill:var(--color228, #a62817)"/>
      <path fill="#c49e03" d="M8.906 16.469a.262.262 0 0 1 .156.188c.127-.032.127.009 0 .125a.554.554 0 0 1-.156-.313z" style="fill:var(--color229, #c49e03)"/>
      <path fill="#c39205" d="M8.781 16.844h-.063c-.164-.07-.216-.195-.156-.375.058.137.131.262.219.375z" style="fill:var(--color230, #c39205)"/>
      <path fill="#901e16" d="M12.906 14.594h.063c-.021.699 0 1.386.063 2.063.565.128.857.482.875 1.063h1.875v-.688h.063c.01.917 0 1.834-.031 2.75a.542.542 0 0 1-.094.25v-2.25h-1.813v.188c-.075.067-.054.119.063.156a.434.434 0 0 0-.188.094c.139.08.264.059.375-.063a.188.188 0 0 1 .125.125 2.64 2.64 0 0 0-.031.688.492.492 0 0 1-.188-.375 1.266 1.266 0 0 1-.344-.188l-.063.063c.06.258.216.425.469.5.043.052.033.094-.031.125a3.295 3.295 0 0 0-.594-.063l.063-.5a.454.454 0 0 0-.125.188c-.061-.08-.113-.08-.156 0a.342.342 0 0 0-.188.063c-.062.31-.083.622-.063.938l-.125-.938a.292.292 0 0 0-.25-.063c-.02.553 0 1.095.063 1.625l-.125.188c-.109.11-.234.193-.375.25a.272.272 0 0 1 .094-.125c.042-.729.042-1.458 0-2.188a.908.908 0 0 1-.219-.5 3.055 3.055 0 0 1 .063-.688c.078-.162.182-.308.313-.438a.591.591 0 0 1 .438-.188v-2.063z" style="fill:var(--color231, #901e16)"/>
      <path fill="#c28f06" d="M8.281 16.969c-.151-.093-.193-.218-.125-.375a.283.283 0 0 1 .094.125c.033-.111.086-.131.156-.063a.378.378 0 0 0-.125.313z" style="fill:var(--color232, #c28f06)"/>
      <path fill="#bab8b8" d="M8.719 16.844h.501v.375a1.04 1.04 0 0 1-.063.5l-.75.313a2.327 2.327 0 0 1 0-1.063c.113-.033.217-.074.313-.125z" style="fill:var(--color233, #bab8b8)"/>
      <path fill="#0139ee" d="M11.719 17.281h-.313a.81.81 0 0 1 .031-.313c.083-.083.167-.083.25 0 .031.102.041.206.031.313z" style="fill:var(--color234, #0139ee)"/>
      <path fill="#6f4f2f" d="M8.281 16.969h.125c-.082.36-.082.715 0 1.063-.021.052-.063.073-.125.063v-.5c-.081.015-.143-.006-.188-.063h.188a3.304 3.304 0 0 1 0-.563z" style="fill:var(--color235, #6f4f2f)"/>
      <path fill="#a12418" d="M16.281 16.344h.438c.249.033.499.053.75.063.044.056.107.077.188.063.648.095.783.407.406.938a.77.77 0 0 1-.344.188.533.533 0 0 0 0 .5c.415.123.55.393.406.813a.484.484 0 0 0-.25.313.445.445 0 0 1-.031-.5.47.47 0 0 0-.188-.125h-.063l-.875-.375c0-.042-.021-.063-.063-.063-.368-.159-.472-.43-.313-.813a.378.378 0 0 1 .313-.125v-.313c-.289-.021-.56.02-.813.125h-.063v-.625h.063a.98.98 0 0 1 .438-.063z" style="fill:var(--color236, #a12418)"/>
      <path fill="#c18807" d="M17.844 16.719c.075.029.116.092.125.188-.045.245-.086.245-.125 0a.314.314 0 0 1-.188-.031c.067-.053.129-.105.188-.156z" style="fill:var(--color237, #c18807)"/>
      <path fill="#bcbaba" d="M17.469 16.906a.272.272 0 0 0 .094.125c.031.333.042.666.031 1a2.235 2.235 0 0 1-.813-.313 3.136 3.136 0 0 1-.063-.875c.248.041.498.062.75.063z" style="fill:var(--color238, #bcbaba)"/>
      <path fill="#c29005" d="M17.469 16.906c-.039-.193-.101-.214-.188-.063-.073-.117-.052-.221.063-.313.065.156.117.156.156 0 .114.078.104.151-.031.219.08.061.08.113 0 .156z" style="fill:var(--color239, #c29005)"/>
      <path fill="#c39305" d="M16.406 16.406c.034.004.055.025.063.063-.135.414-.25.414-.344 0l.188.188c.026-.088.057-.171.094-.25z" style="fill:var(--color240, #c39305)"/>
      <path fill="#9e2217" d="M9.219 17.219c.303.001.449.157.438.469-.049.235-.194.392-.438.469l-.5.25-.313.125c-.062-.011-.104.01-.125.063-.202.062-.244.187-.125.375a.348.348 0 0 1-.094.25.924.924 0 0 0-.25-.313 1.009 1.009 0 0 1-.031-.594c.161-.091.327-.164.5-.219.062.011.104-.01.125-.063l.75-.313c.061-.162.082-.328.063-.5z" style="fill:var(--color241, #9e2217)"/>
      <path fill="#1c4c95" d="M12.719 16.969c.75-.03 1.031.324.844 1.063-.396.583-.792.583-1.188 0-.128-.447-.013-.801.344-1.063z" style="fill:var(--color242, #1c4c95)"/>
      <path fill="#8d8118" d="M13.219 17.219c.106.064.19.158.25.281a.226.226 0 0 1-.125.125c.064.085.033.137-.094.156a.212.212 0 0 1-.156-.094c.034-.14.076-.296.125-.469z" style="fill:var(--color243, #8d8118)"/>
      <path fill="#978911" d="M12.594 17.219c.096.084.179.188.25.313l-.188.25a4.048 4.048 0 0 0-.188-.281.455.455 0 0 0 .125-.281z" style="fill:var(--color244, #978911)"/>
      <path fill="#521d0c" d="M10.906 16.844c.007.117-.025.138-.094.063a1.154 1.154 0 0 0-.031.375h1.376a3.164 3.164 0 0 0-.063.688 32.013 32.013 0 0 0-.063 2.813h.188a.676.676 0 0 1-.375.125c.123-1.027.164-2.068.125-3.125h-.25c-.104-.083-.208-.083-.313 0v3.125h.313l-.188.125a1.902 1.902 0 0 1-.625-.25h.188c.067.058.15.079.25.063v-3.063h-.25a.436.436 0 0 0-.313-.063v3a.486.486 0 0 1-.313-.25.245.245 0 0 1 .219.125c.031-.937.042-1.875.031-2.813h-.25c-.104-.083-.208-.083-.313 0 .021.678 0 1.345-.063 2v-2.125h1.938a.405.405 0 0 1 .063-.281c-.458-.031-.916-.042-1.375-.031v-.5h.188z" style="fill:var(--color245, #521d0c)"/>
      <path fill="#bea702" d="M10.156 17.781h.25c.021.844 0 1.678-.063 2.5a1.409 1.409 0 0 1-.25-.5c.062-.655.083-1.322.063-2z" style="fill:var(--color246, #bea702)"/>
      <path fill="#685103" d="M10.156 17.781c.104-.083.208-.083.313 0v2.688c-.088-.03-.13-.092-.125-.188.062-.822.083-1.656.063-2.5h-.25z" style="fill:var(--color247, #685103)"/>
      <path fill="#a91418" d="M10.469 17.781h.25c.01.938 0 1.875-.031 2.813a.245.245 0 0 0-.219-.125v-2.688z" style="fill:var(--color248, #a91418)"/>
      <path fill="#bba500" d="M11.094 17.781v3h-.188c-.062.011-.104-.01-.125-.063v-3a.426.426 0 0 1 .313.063z" style="fill:var(--color191, #bba500)"/>
      <path fill="#a41417" d="M11.094 17.781h.25v3.063a.286.286 0 0 1-.25-.063v-3z" style="fill:var(--color249, #a41417)"/>
      <path fill="#c6b400" d="M11.406 17.781h.25v3.125h-.25v-3.125z" style="fill:var(--color250, #c6b400)"/>
      <path fill="#887900" d="M11.406 17.781c.104-.083.208-.083.313 0v3.125h-.063v-3.125h-.25z" style="fill:var(--color251, #887900)"/>
      <path fill="#a31417" d="M11.719 17.781h.25a20.024 20.024 0 0 1-.125 3.125h-.125v-3.125z" style="fill:var(--color252, #a31417)"/>
      <path fill="#a81c18" d="M15.719 20.031a1.144 1.144 0 0 1-.813.813 4.801 4.801 0 0 1-.813.063 1.061 1.061 0 0 1-.688-.313 2.97 2.97 0 0 1-.375-.625v-.25c-.02-.315 0-.628.063-.938a.355.355 0 0 1 .188-.063c.004.299.004.601 0 .906.077.17.13.347.156.531a.389.389 0 0 1 .344.313c.21.033.408.095.594.188a2.05 2.05 0 0 1 .594-.188.388.388 0 0 1 .344-.313c.016-.198.068-.385.156-.563a.386.386 0 0 1 0-.406c-.161-.175-.161-.352 0-.531a.998.998 0 0 0-.125-.281c.198-.385.104-.479-.281-.281-.16-.161-.316-.161-.469 0-.146-.167-.292-.167-.438 0a.42.42 0 0 0-.25-.125v-.188h1.813v2.25z" style="fill:var(--color253, #a81c18)"/>
      <path fill="#a19006" d="M12.906 17.719c.096.084.179.188.25.313l-.188.25-.188-.25a.357.357 0 0 0 .125-.313z" style="fill:var(--color254, #a19006)"/>
      <path fill="#c0aa00" d="M12.094 17.969a.9.9 0 0 0 .219.5c.042.729.042 1.458 0 2.188a.272.272 0 0 0-.094.125h-.188c-.021-.948 0-1.886.063-2.813z" style="fill:var(--color255, #c0aa00)"/>
      <path fill="#c1c1c1" d="m16.719 18.219.875.375v1.188h-.875v-1.563z" style="fill:var(--color221, #c1c1c1)"/>
      <path fill="#9c9999" d="M9.219 18.156v1.625h-.313v-1.375h-.188l.5-.25z" style="fill:var(--color256, #9c9999)"/>
      <path fill="#cacaca" d="M8.719 18.406h.188v1.375h-.563a6.587 6.587 0 0 1 .063-1.25l.313-.125z" style="fill:var(--color257, #cacaca)"/>
      <path fill="#c49a05" d="M13.906 17.969a.42.42 0 0 1 .25.125c.146-.167.292-.167.438 0 .153-.161.309-.161.469 0 .385-.198.479-.104.281.281a.998.998 0 0 1 .125.281c-.161.179-.161.356 0 .531a.386.386 0 0 0 0 .406c-.088.177-.14.365-.156.563a.389.389 0 0 0-.344.313 2.02 2.02 0 0 0-.594.188 2.05 2.05 0 0 0-.594-.188.388.388 0 0 0-.344-.313 1.976 1.976 0 0 0-.156-.531c.004-.305.004-.607 0-.906.043-.08.095-.08.156 0a.46.46 0 0 1 .125-.188l-.063.5c.195.002.393.023.594.063.064-.031.074-.073.031-.125a.64.64 0 0 1-.469-.5l.063-.063c.105.08.22.143.344.188.007.155.07.28.188.375a2.64 2.64 0 0 1 .031-.688.188.188 0 0 0-.125-.125c-.111.122-.236.142-.375.063a.429.429 0 0 1 .188-.094c-.116-.038-.137-.09-.063-.156z" style="fill:var(--color258, #c49a05)"/>
      <path fill="#af2817" d="M14.531 19.094a.623.623 0 0 1 .406-.313.498.498 0 0 1 .25-.438.786.786 0 0 1-.031.281c.035.097.076.191.125.281l-.063.125a3.356 3.356 0 0 0-.688.063z" style="fill:var(--color259, #af2817)"/>
      <path fill="#b13017" d="M14.469 18.156c.117.028.231.07.344.125a.626.626 0 0 1 .344-.094 1.622 1.622 0 0 1-.531.469.632.632 0 0 1-.156.313c.072-.28.072-.551 0-.813z" style="fill:var(--color260, #b13017)"/>
      <path fill="#bba500" d="M12.906 18.781v1.188l-.188.375a10.657 10.657 0 0 1-.063-1.625c.1-.017.183.004.25.063z" style="fill:var(--color191, #bba500)"/>
      <path fill="#1b8f67" d="M14.531 19.094v.125a.576.576 0 0 1-.313.063v-.063c.042-.188.146-.229.313-.125z" style="fill:var(--color261, #1b8f67)"/>
      <path fill="#43320e" d="m12.906 18.781.125.938v.25h-.125v-1.188z" style="fill:var(--color262, #43320e)"/>
      <path fill="#b02c17" d="M14.219 19.219v.063a.723.723 0 0 1-.375.219.568.568 0 0 1-.25.406.299.299 0 0 1 0-.313 1.128 1.128 0 0 0-.125-.219c.015-.108.077-.16.188-.156a.751.751 0 0 0 .563 0z" style="fill:var(--color263, #b02c17)"/>
      <path fill="#b02e17" d="M14.531 19.219c.222.048.441.069.656.063a3.577 3.577 0 0 0-.031.625 2.47 2.47 0 0 0-.625-.688z" style="fill:var(--color264, #b02e17)"/>
      <path fill="#b02d17" d="M14.406 19.344c.175.269.384.509.625.719a.245.245 0 0 1-.063.125.474.474 0 0 0-.406.219c-.118-.023-.17-.096-.156-.219l.125-.313a1.085 1.085 0 0 1-.125-.531z" style="fill:var(--color265, #b02d17)"/>
      <path fill="#ae2317" d="M14.219 19.406c-.016.323.004.656.063 1a1.085 1.085 0 0 0-.563-.188.81.81 0 0 1 .031-.313c.143-.082.278-.176.406-.281l-.063-.063a.434.434 0 0 0 .125-.156z" style="fill:var(--color266, #ae2317)"/>
      <path fill="#87751d" d="M16.656 18.156c.042 0 .063.021.063.063v1.563h.875v-1.188h.063c.007.489.007.968 0 1.438a2.04 2.04 0 0 0-1 0c-.005-.616-.005-1.241 0-1.875z" style="fill:var(--color267, #87751d)"/>
      <path fill="#c7b000" d="M17.656 20.031a2.04 2.04 0 0 1-1 0 2.04 2.04 0 0 1 1 0z" style="fill:var(--color268, #c7b000)"/>
      <path fill="#6f6216" d="M8.406 18.531a6.67 6.67 0 0 0-.063 1.25H9.219c.033.13.096.245.188.344-.416.031-.833.042-1.25.031v.25c.449-.02.887.001 1.313.063a6.918 6.918 0 0 0-.875.063 1.038 1.038 0 0 0-.5-.063.453.453 0 0 1 .156-.438c.32.081.643.081.969 0l-1-.125c.06-.434.081-.871.063-1.313.021-.052.063-.073.125-.063z" style="fill:var(--color269, #6f6216)"/>
      <path fill="#695d0f" d="M16.656 20.031a2.04 2.04 0 0 0 1 0c.158.096.22.241.188.438a3.828 3.828 0 0 1-1.375 0c-.033-.196.03-.342.188-.438z" style="fill:var(--color270, #695d0f)"/>
      <path fill="#c7b100" d="M16.531 20.156h1.25v.25h-1.25v-.25z" style="fill:var(--color271, #c7b100)"/>
      <path fill="#8a827b" d="M12.906 19.969h.125c.1.225.225.433.375.625l-.125.125a2.777 2.777 0 0 0-.281-.438.548.548 0 0 0-.281.5l-.125-.25.125-.188c.063-.128.126-.253.188-.375z" style="fill:var(--color272, #8a827b)"/>
      <path fill="#0e52a6" d="M16.469 20.469c.458.083.917.083 1.375 0 .105-.013.167.028.188.125h-1.75c.02-.097.083-.138.188-.125z" style="fill:var(--color273, #0e52a6)"/>
      <path fill="#dfba7f" d="M13.281 20.719a.437.437 0 0 1-.25.125c.098-.148.077-.273-.063-.375a.453.453 0 0 0-.063.313c0 .042-.021.063-.063.063l-.125-.063a.55.55 0 0 1 .281-.5c.109.14.203.285.281.438z" style="fill:var(--color274, #dfba7f)"/>
      <path fill="#6f7684" d="M7.906 20.469h.188c.18-.019.347.002.5.063.293.009.595.03.906.063.105-.011.116-.053.031-.125.12.199.161.428.125.688a.426.426 0 0 1-.313-.063c.214.008.235-.033.063-.125a.314.314 0 0 0 .188-.031.354.354 0 0 1-.188-.094.314.314 0 0 0 .188-.031.52.52 0 0 0-.406-.156c-.428.04-.855.082-1.281.125v-.313z" style="fill:var(--color275, #6f7684)"/>
      <path fill="#0453ad" d="M9.469 20.469h.063c.084.072.074.114-.031.125a13.283 13.283 0 0 0-.906-.063c.29-.039.582-.06.875-.063z" style="fill:var(--color276, #0453ad)"/>
      <path fill="#7d8386" d="M18.031 20.594v.188h-1.75v-.188h1.75z" style="fill:var(--color277, #7d8386)"/>
      <path fill="#81211a" d="m13.031 20.844-.125-.063a.443.443 0 0 1 .063-.313c.14.102.161.227.063.375z" style="fill:var(--color278, #81211a)"/>
      <path fill="#2c508e" d="M9.406 20.844a32.327 32.327 0 0 1-1.5-.063c.426-.043.853-.085 1.281-.125a.52.52 0 0 1 .406.156.306.306 0 0 1-.188.031z" style="fill:var(--color279, #2c508e)"/>
      <path fill="#0057b6" d="M18.031 20.781v.063h-1.75v-.063h1.75z" style="fill:var(--color280, #0057b6)"/>
      <path fill="#b3b0a8" d="m12.594 20.531.125.25.125.063-.5.031a1.14 1.14 0 0 0 1.125.188.272.272 0 0 0 .188-.156.684.684 0 0 1-.375-.188l.125-.125c.189.188.418.292.688.313l.313.125a4.262 4.262 0 0 1-2.875 0l.188-.125h.125a.676.676 0 0 0 .375-.125c.141-.057.266-.14.375-.25z" style="fill:var(--color281, #b3b0a8)"/>
      <path fill="#787e80" d="M18.031 20.844v.188h-1.75v-.188h1.75z" style="fill:var(--color282, #787e80)"/>
      <path fill="#908e81" d="M7.906 20.469v.313c.485.031.985.052 1.5.063a.35.35 0 0 0 .188.094.306.306 0 0 1-.188.031.712.712 0 0 0-.219-.063c-.384.046-.769.077-1.156.094-.163.067-.163.119 0 .156-.044.056-.107.077-.188.063-.02-.263.001-.513.063-.75z" style="fill:var(--color283, #908e81)"/>
      <path fill="#614d43" d="M14.906 20.844a1.33 1.33 0 0 1-.5.188l-.313-.125a4.81 4.81 0 0 0 .813-.063z" style="fill:var(--color284, #614d43)"/>
      <path fill="#3e6457" d="M13.281 20.719c.095.096.22.159.375.188a.27.27 0 0 1-.188.156 1.138 1.138 0 0 1-1.125-.188l.5-.031c.042 0 .063-.021.063-.063l.125.063a.437.437 0 0 0 .25-.125z" style="fill:var(--color285, #3e6457)"/>
      <path fill="#15519e" d="M18.031 21.031c-.008.068-.049.11-.125.125-.511-.003-1.021-.003-1.531 0-.064-.021-.096-.063-.094-.125h1.75z" style="fill:var(--color286, #15519e)"/>
      <path fill="#35538b" d="M9.406 20.969c.172.092.152.133-.063.125-.44.052-.877.073-1.313.063-.163-.037-.163-.089 0-.156.387-.017.772-.048 1.156-.094.079.009.151.03.219.063z" style="fill:var(--color287, #35538b)"/>
      <path fill="#e74c3b" d="M2.969 23.469h26c-2.479 4.191-6.146 6.659-11 7.406-5.179.545-9.564-1.049-13.156-4.781a13.167 13.167 0 0 1-1.844-2.625z" opacity=".996" style="fill:var(--color174, #e74c3b)"/>
    </symbol>
    <symbol id="icon-it" viewBox="0 0 32 32">
      <path fill="#f0f0f0" d="M14.531-.031h2.875c1.404.153 2.779.465 4.125.938v30.125a18.476 18.476 0 0 1-4.125.938h-2.875a16.176 16.176 0 0 1-4.188-1c.083-10 .083-20 0-30a16.166 16.166 0 0 1 4.188-1z" opacity=".999" style="fill:var(--color173, #f0f0f0)"/>
      <path fill="#6da544" d="M10.344.969c.083 10 .083 20 0 30-5.301-2.121-8.645-5.954-10.031-11.5a29.28 29.28 0 0 1-.344-2.063v-2.875C.649 8.928 3.42 4.71 8.282 1.875a11.746 11.746 0 0 1 2.063-.906z" style="fill:var(--color288, #6da544)"/>
      <path fill="#d90d2f" d="M21.531.906a.448.448 0 0 1 .188.125 892.397 892.397 0 0 0 0 29.876.442.442 0 0 1-.188.125V.907z" style="fill:var(--color289, #d90d2f)"/>
      <path fill="#d80227" d="M21.719 1.031c3.659 1.398 6.44 3.814 8.344 7.25a15.481 15.481 0 0 1 1.469 3.938.787.787 0 0 0 .125.5c.13.606.234 1.21.313 1.813v2.875c-.68 5.603-3.451 9.822-8.313 12.656a9.997 9.997 0 0 1-1.938.844 892.397 892.397 0 0 1 0-29.876z" style="fill:var(--color290, #d80227)"/>
      <path fill="#e56374" d="M31.531 12.219c.079.15.121.317.125.5a.787.787 0 0 1-.125-.5z" opacity=".827" style="fill:var(--color291, #e56374)"/>
    </symbol>
  </defs>
</svg>
